<svg width="20" height="20" viewBox="0 0 20 20" fill="none" xmlns="http://www.w3.org/2000/svg">
<path d="M12 3.99999H16V7.99999H12V3.99999Z" fill="black"/>
<path d="M16 1.32923e-05H20V4.00002L16 3.99999V1.32923e-05Z" fill="black"/>
<path d="M7.99997 7.99999L12 7.99999L11.9999 12H7.99997V7.99999Z" fill="black"/>
<path d="M4.00002 12L7.99997 12L8 16H4.00002V12Z" fill="black"/>
<path d="M4.56771e-05 16H4.00002V20H4.56771e-05V16Z" fill="black"/>
<path d="M3.99994 3.99999H7.99992L7.99997 7.99999L3.99994 7.99999V3.99999Z" fill="black"/>
<path d="M-4.1113e-05 -1.70017e-05H3.99994V3.99999H-4.1113e-05V-1.70017e-05Z" fill="black"/>
<path d="M11.9999 12L16 12V16H12L11.9999 12Z" fill="black"/>
<path d="M16 16L20 16V20H16L16 16Z" fill="black"/>
</svg>
