<svg width="50" height="80" viewBox="0 0 50 80" fill="none" xmlns="http://www.w3.org/2000/svg">
<mask id="path-1-inside-1_77_8" fill="white">
<path d="M5 15H10V20H5V15Z"/>
<path d="M10 10H15V15H10V10Z"/>
<path d="M15 5H20V10H15V5Z"/>
<path d="M30 5H35V10H30V5Z"/>
<path d="M20 0H25V5H20V0Z"/>
<path d="M25 0H30V5H25V0Z"/>
<path d="M35 10H40V15H35V10Z"/>
<path d="M40 15H45V20H40V15Z"/>
<path d="M0 20H50V80H0V20Z"/>
</mask>
<path d="M5 15H10V20H5V15Z" fill="black"/>
<path d="M10 10H15V15H10V10Z" fill="black"/>
<path d="M15 5H20V10H15V5Z" fill="black"/>
<path d="M30 5H35V10H30V5Z" fill="black"/>
<path d="M20 0H25V5H20V0Z" fill="black"/>
<path d="M25 0H30V5H25V0Z" fill="black"/>
<path d="M35 10H40V15H35V10Z" fill="black"/>
<path d="M40 15H45V20H40V15Z" fill="black"/>
<path d="M0 20H50V80H0V20Z" fill="white"/>
<path d="M22.5 0V5H27.5V0H22.5ZM5 15V10H0V15H5ZM10 20V25H15V20H10ZM5 20H0V25H5V20ZM10 10V5H5V10H10ZM15 15V20H20V15H15ZM15 5V0H10V5H15ZM20 10V15H25V10H20ZM35 5H40V0H35V5ZM30 10H25V15H30V10ZM20 0V-5H15V0H20ZM30 0H35V-5H30V0ZM40 10H45V5H40V10ZM35 15H30V20H35V15ZM45 15H50V10H45V15ZM45 20V25H50V20H45ZM40 20H35V25H40V20ZM0 20V15H-5V20H0ZM50 20H55V15H50V20ZM50 80V85H55V80H50ZM0 80H-5V85H0V80ZM5 20H10V10H5V20ZM5 15V20H15V15H5ZM10 15H5V25H10V15ZM10 20V15H0V20H10ZM10 15H15V5H10V15ZM10 10V15H20V10H10ZM15 10H10V20H15V10ZM15 15V10H5V15H15ZM15 10H20V0H15V10ZM15 5V10H25V5H15ZM20 5H15V15H20V5ZM20 10V5H10V10H20ZM30 10H35V0H30V10ZM30 5V10H40V5H30ZM35 5H30V15H35V5ZM35 10V5H25V10H35ZM20 5H25V-5H20V5ZM25 0H20V10H25V0ZM25 5V0H15V5H25ZM25 5H30V-5H25V5ZM25 0V5H35V0H25ZM30 0H25V10H30V0ZM35 15H40V5H35V15ZM35 10V15H45V10H35ZM40 10H35V20H40V10ZM40 15V10H30V15H40ZM40 20H45V10H40V20ZM40 15V20H50V15H40ZM45 15H40V25H45V15ZM45 20V15H35V20H45ZM0 25H50V15H0V25ZM45 20V80H55V20H45ZM50 75H0V85H50V75ZM5 80V20H-5V80H5Z" fill="black" mask="url(#path-1-inside-1_77_8)"/>
</svg>
