<svg width="194" height="209" viewBox="0 0 194 209" fill="none" xmlns="http://www.w3.org/2000/svg">
<path d="M97 0H101.409V4.75H97V0Z" fill="#FFF389"/>
<path d="M97 4.75H101.409V9.5H97V4.75Z" fill="#FFF389"/>
<path d="M97 9.5H101.409V14.25H97V9.5Z" fill="#FFF389"/>
<path d="M97 14.25H101.409V19H97V14.25Z" fill="#FFF389"/>
<path d="M97 19H101.409V23.75H97V19Z" fill="#FFF389"/>
<path d="M97 23.75H101.409V28.5H97V23.75Z" fill="#FFF389"/>
<path d="M101.409 28.5H105.818V33.25H101.409V28.5Z" fill="#FFF389"/>
<path d="M101.409 33.25H105.818V38H101.409V33.25Z" fill="#FFF389"/>
<path d="M101.409 38H105.818V42.75H101.409V38Z" fill="#FFF389"/>
<path d="M101.409 42.75H105.818V47.5H101.409V42.75Z" fill="#FFF389"/>
<path d="M101.409 47.5H105.818V52.25H101.409V47.5Z" fill="#FFF389"/>
<path d="M101.409 52.25H105.818V57H101.409V52.25Z" fill="#FFF389"/>
<path d="M105.818 57H110.227V61.75H105.818V57Z" fill="#FFF389"/>
<path d="M105.818 61.75H110.227V66.5H105.818V61.75Z" fill="#FFF389"/>
<path d="M105.818 66.5H110.227V71.25H105.818V66.5Z" fill="#FFF389"/>
<path d="M105.818 71.25H110.227V76H105.818V71.25Z" fill="#FFF389"/>
<path d="M105.818 76H110.227V80.75H105.818V76Z" fill="#FFF389"/>
<path d="M105.818 80.75H110.227V85.5H105.818V80.75Z" fill="#FFF389"/>
<path d="M110.227 85.5H114.636V90.25H110.227V85.5Z" fill="#FFF389"/>
<path d="M185.182 71.25H189.591V76H185.182V71.25Z" fill="#FFF389"/>
<path d="M154.318 76H158.727V80.75H154.318V76Z" fill="#FFF389"/>
<path d="M127.864 80.75H132.273V85.5H127.864V80.75Z" fill="#FFF389"/>
<path d="M114.636 80.75H119.045V85.5H114.636V80.75Z" fill="#FFF389"/>
<path d="M119.045 80.75H123.455V85.5H119.045V80.75Z" fill="#FFF389"/>
<path d="M123.455 80.75H127.864V85.5H123.455V80.75Z" fill="#FFF389"/>
<path d="M132.273 80.75H136.682V85.5H132.273V80.75Z" fill="#FFF389"/>
<path d="M136.682 80.75H141.091V85.5H136.682V80.75Z" fill="#FFF389"/>
<path d="M141.091 76H145.5V80.75H141.091V76Z" fill="#FFF389"/>
<path d="M145.5 76H149.909V80.75H145.5V76Z" fill="#FFF389"/>
<path d="M149.909 76H154.318V80.75H149.909V76Z" fill="#FFF389"/>
<path d="M158.727 76H163.136V80.75H158.727V76Z" fill="#FFF389"/>
<path d="M163.136 76H167.545V80.75H163.136V76Z" fill="#FFF389"/>
<path d="M167.545 76H171.955V80.75H167.545V76Z" fill="#FFF389"/>
<path d="M171.955 71.25H176.364V76H171.955V71.25Z" fill="#FFF389"/>
<path d="M176.364 71.25H180.773V76H176.364V71.25Z" fill="#FFF389"/>
<path d="M180.773 71.25H185.182V76H180.773V71.25Z" fill="#FFF389"/>
<path d="M189.591 71.25H194V76H189.591V71.25Z" fill="#FFF389"/>
<path d="M180.773 76H185.182V80.75H180.773V76Z" fill="#FFF389"/>
<path d="M171.955 80.75H176.364V85.5H171.955V80.75Z" fill="#FFF389"/>
<path d="M163.136 85.5H167.545V90.25H163.136V85.5Z" fill="#FFF389"/>
<path d="M154.318 90.25H158.727V95H154.318V90.25Z" fill="#FFF389"/>
<path d="M141.091 95H145.5V99.75H141.091V95Z" fill="#FFF389"/>
<path d="M132.273 99.75H136.682V104.5H132.273V99.75Z" fill="#FFF389"/>
<path d="M123.455 104.5H127.864V109.25H123.455V104.5Z" fill="#FFF389"/>
<path d="M119.045 109.25H123.455V114H119.045V109.25Z" fill="#FFF389"/>
<path d="M127.864 104.5H132.273V109.25H127.864V104.5Z" fill="#FFF389"/>
<path d="M136.682 99.75H141.091V104.5H136.682V99.75Z" fill="#FFF389"/>
<path d="M145.5 95H149.909V99.75H145.5V95Z" fill="#FFF389"/>
<path d="M149.909 90.25H154.318V95H149.909V90.25Z" fill="#FFF389"/>
<path d="M158.727 85.5H163.136V90.25H158.727V85.5Z" fill="#FFF389"/>
<path d="M167.545 80.75H171.955V85.5H167.545V80.75Z" fill="#FFF389"/>
<path d="M176.364 76H180.773V80.75H176.364V76Z" fill="#FFF389"/>
<path d="M114.636 109.25H119.045V114H114.636V109.25Z" fill="#FFF389"/>
<path d="M119.045 114H123.455V118.75H119.045V114Z" fill="#FFF389"/>
<path d="M123.455 118.75H127.864V123.5H123.455V118.75Z" fill="#FFF389"/>
<path d="M123.455 123.5H127.864V128.25H123.455V123.5Z" fill="#FFF389"/>
<path d="M127.864 128.25H132.273V133H127.864V128.25Z" fill="#FFF389"/>
<path d="M127.864 133H132.273V137.75H127.864V133Z" fill="#FFF389"/>
<path d="M132.273 137.75H136.682V142.5H132.273V137.75Z" fill="#FFF389"/>
<path d="M132.273 142.5H136.682V147.25H132.273V142.5Z" fill="#FFF389"/>
<path d="M136.682 147.25H141.091V152H136.682V147.25Z" fill="#FFF389"/>
<path d="M136.682 152H141.091V156.75H136.682V152Z" fill="#FFF389"/>
<path d="M141.091 156.75H145.5V161.5H141.091V156.75Z" fill="#FFF389"/>
<path d="M141.091 161.5H145.5V166.25H141.091V161.5Z" fill="#FFF389"/>
<path d="M145.5 166.25H149.909V171H145.5V166.25Z" fill="#FFF389"/>
<path d="M149.909 171H154.318V175.75H149.909V171Z" fill="#FFF389"/>
<path d="M149.909 175.75H154.318V180.5H149.909V175.75Z" fill="#FFF389"/>
<path d="M154.318 180.5H158.727V185.25H154.318V180.5Z" fill="#FFF389"/>
<path d="M154.318 185.25H158.727V190H154.318V185.25Z" fill="#FFF389"/>
<path d="M101.409 128.25H105.818V133H101.409V128.25Z" fill="#FFF389"/>
<path d="M105.818 133H110.227V137.75H105.818V133Z" fill="#FFF389"/>
<path d="M110.227 137.75H114.636V142.5H110.227V137.75Z" fill="#FFF389"/>
<path d="M114.636 142.5H119.045V147.25H114.636V142.5Z" fill="#FFF389"/>
<path d="M119.045 147.25H123.455V152H119.045V147.25Z" fill="#FFF389"/>
<path d="M123.455 152H127.864V156.75H123.455V152Z" fill="#FFF389"/>
<path d="M127.864 156.75H132.273V161.5H127.864V156.75Z" fill="#FFF389"/>
<path d="M132.273 161.5H136.682V166.25H132.273V161.5Z" fill="#FFF389"/>
<path d="M136.682 166.25H141.091V171H136.682V166.25Z" fill="#FFF389"/>
<path d="M141.091 171H145.5V175.75H141.091V171Z" fill="#FFF389"/>
<path d="M145.5 175.75H149.909V180.5H145.5V175.75Z" fill="#FFF389"/>
<path d="M149.909 180.5H154.318V185.25H149.909V180.5Z" fill="#FFF389"/>
<path d="M97 128.25H101.409V133H97V128.25Z" fill="#FFF389"/>
<path d="M97 123.5H101.409V128.25H97V123.5Z" fill="#FFF389"/>
<path d="M92.5909 128.25H97V133H92.5909V128.25Z" fill="#FFF389"/>
<path d="M88.1818 133H92.5909V137.75H88.1818V133Z" fill="#FFF389"/>
<path d="M83.7727 137.75H88.1818V142.5H83.7727V137.75Z" fill="#FFF389"/>
<path d="M74.9545 142.5H79.3636V147.25H74.9545V142.5Z" fill="#FFF389"/>
<path d="M70.5455 147.25H74.9545V152H70.5455V147.25Z" fill="#FFF389"/>
<path d="M66.1364 152H70.5455V156.75H66.1364V152Z" fill="#FFF389"/>
<path d="M61.7273 156.75H66.1364V161.5H61.7273V156.75Z" fill="#FFF389"/>
<path d="M57.3182 161.5H61.7273V166.25H57.3182V161.5Z" fill="#FFF389"/>
<path d="M52.9091 166.25H57.3182V171H52.9091V166.25Z" fill="#FFF389"/>
<path d="M48.5 171H52.9091V175.75H48.5V171Z" fill="#FFF389"/>
<path d="M44.0909 175.75H48.5V180.5H44.0909V175.75Z" fill="#FFF389"/>
<path d="M39.6818 180.5H44.0909V185.25H39.6818V180.5Z" fill="#FFF389"/>
<path d="M79.3636 137.75H83.7727V142.5H79.3636V137.75Z" fill="#FFF389"/>
<path d="M35.2727 185.25H39.6818V190H35.2727V185.25Z" fill="#FFF389"/>
<path d="M74.9545 109.25H79.3636V114H74.9545V109.25Z" fill="#FFF389"/>
<path d="M70.5455 114H74.9545V118.75H70.5455V114Z" fill="#FFF389"/>
<path d="M70.5455 118.75H74.9545V123.5H70.5455V118.75Z" fill="#FFF389"/>
<path d="M66.1364 123.5H70.5455V128.25H66.1364V123.5Z" fill="#FFF389"/>
<path d="M66.1364 128.25H70.5455V133H66.1364V128.25Z" fill="#FFF389"/>
<path d="M61.7273 133H66.1364V137.75H61.7273V133Z" fill="#FFF389"/>
<path d="M57.3182 137.75H61.7273V142.5H57.3182V137.75Z" fill="#FFF389"/>
<path d="M57.3182 142.5H61.7273V147.25H57.3182V142.5Z" fill="#FFF389"/>
<path d="M52.9091 147.25H57.3182V152H52.9091V147.25Z" fill="#FFF389"/>
<path d="M52.9091 152H57.3182V156.75H52.9091V152Z" fill="#FFF389"/>
<path d="M48.5 156.75H52.9091V161.5H48.5V156.75Z" fill="#FFF389"/>
<path d="M48.5 161.5H52.9091V166.25H48.5V161.5Z" fill="#FFF389"/>
<path d="M44.0909 166.25H48.5V171H44.0909V166.25Z" fill="#FFF389"/>
<path d="M44.0909 171H48.5V175.75H44.0909V171Z" fill="#FFF389"/>
<path d="M39.6818 175.75H44.0909V180.5H39.6818V175.75Z" fill="#FFF389"/>
<path d="M0 71.25H4.40909V76H0V71.25Z" fill="#FFF389"/>
<path d="M8.81818 76H13.2273V80.75H8.81818V76Z" fill="#FFF389"/>
<path d="M17.6364 80.75H22.0455V85.5H17.6364V80.75Z" fill="#FFF389"/>
<path d="M30.8636 85.5H35.2727V90.25H30.8636V85.5Z" fill="#FFF389"/>
<path d="M39.6818 90.25H44.0909V95H39.6818V90.25Z" fill="#FFF389"/>
<path d="M48.5 95H52.9091V99.75H48.5V95Z" fill="#FFF389"/>
<path d="M57.3182 99.75H61.7273V104.5H57.3182V99.75Z" fill="#FFF389"/>
<path d="M66.1364 104.5H70.5455V109.25H66.1364V104.5Z" fill="#FFF389"/>
<path d="M4.40909 71.25H8.81818V76H4.40909V71.25Z" fill="#FFF389"/>
<path d="M13.2273 76H17.6364V80.75H13.2273V76Z" fill="#FFF389"/>
<path d="M22.0455 80.75H26.4545V85.5H22.0455V80.75Z" fill="#FFF389"/>
<path d="M26.4545 85.5H30.8636V90.25H26.4545V85.5Z" fill="#FFF389"/>
<path d="M35.2727 90.25H39.6818V95H35.2727V90.25Z" fill="#FFF389"/>
<path d="M44.0909 95H48.5V99.75H44.0909V95Z" fill="#FFF389"/>
<path d="M52.9091 99.75H57.3182V104.5H52.9091V99.75Z" fill="#FFF389"/>
<path d="M61.7273 104.5H66.1364V109.25H61.7273V104.5Z" fill="#FFF389"/>
<path d="M70.5455 104.5H74.9545V109.25H70.5455V104.5Z" fill="#FFF389"/>
<path d="M35.2727 76H39.6818V80.75H35.2727V76Z" fill="#FFF389"/>
<path d="M66.1364 80.75H70.5455V85.5H66.1364V80.75Z" fill="#FFF389"/>
<path d="M8.81818 71.25H13.2273V76H8.81818V71.25Z" fill="#FFF389"/>
<path d="M13.2273 71.25H17.6364V76H13.2273V71.25Z" fill="#FFF389"/>
<path d="M17.6364 71.25H22.0455V76H17.6364V71.25Z" fill="#FFF389"/>
<path d="M22.0455 76H26.4545V80.75H22.0455V76Z" fill="#FFF389"/>
<path d="M26.4545 76H30.8636V80.75H26.4545V76Z" fill="#FFF389"/>
<path d="M30.8636 76H35.2727V80.75H30.8636V76Z" fill="#FFF389"/>
<path d="M39.6818 76H44.0909V80.75H39.6818V76Z" fill="#FFF389"/>
<path d="M44.0909 76H48.5V80.75H44.0909V76Z" fill="#FFF389"/>
<path d="M48.5 76H52.9091V80.75H48.5V76Z" fill="#FFF389"/>
<path d="M52.9091 80.75H57.3182V85.5H52.9091V80.75Z" fill="#FFF389"/>
<path d="M57.3182 80.75H61.7273V85.5H57.3182V80.75Z" fill="#FFF389"/>
<path d="M61.7273 80.75H66.1364V85.5H61.7273V80.75Z" fill="#FFF389"/>
<path d="M70.5455 80.75H74.9545V85.5H70.5455V80.75Z" fill="#FFF389"/>
<path d="M74.9545 80.75H79.3636V85.5H74.9545V80.75Z" fill="#FFF389"/>
<path d="M79.3636 85.5H83.7727V90.25H79.3636V85.5Z" fill="#FFF389"/>
<path d="M83.7727 85.5H88.1818V90.25H83.7727V85.5Z" fill="#FFF389"/>
<path d="M92.5909 4.75H97V9.5H92.5909V4.75Z" fill="#FFF389"/>
<path d="M92.5909 9.5H97V14.25H92.5909V9.5Z" fill="#FFF389"/>
<path d="M92.5909 14.25H97V19H92.5909V14.25Z" fill="#FFF389"/>
<path d="M92.5909 19H97V23.75H92.5909V19Z" fill="#FFF389"/>
<path d="M92.5909 23.75H97V28.5H92.5909V23.75Z" fill="#FFF389"/>
<path d="M92.5909 28.5H97V33.25H92.5909V28.5Z" fill="#FFF389"/>
<path d="M88.1818 33.25H92.5909V38H88.1818V33.25Z" fill="#FFF389"/>
<path d="M88.1818 38H92.5909V42.75H88.1818V38Z" fill="#FFF389"/>
<path d="M88.1818 42.75H92.5909V47.5H88.1818V42.75Z" fill="#FFF389"/>
<path d="M88.1818 47.5H92.5909V52.25H88.1818V47.5Z" fill="#FFF389"/>
<path d="M88.1818 52.25H92.5909V57H88.1818V52.25Z" fill="#FFF389"/>
<path d="M88.1818 57H92.5909V61.75H88.1818V57Z" fill="#FFF389"/>
<path d="M83.7727 61.75H88.1818V66.5H83.7727V61.75Z" fill="#FFF389"/>
<path d="M83.7727 66.5H88.1818V71.25H83.7727V66.5Z" fill="#FFF389"/>
<path d="M83.7727 71.25H88.1818V76H83.7727V71.25Z" fill="#FFF389"/>
<path d="M83.7727 76H88.1818V80.75H83.7727V76Z" fill="#FFF389"/>
<path d="M83.7727 80.75H88.1818V85.5H83.7727V80.75Z" fill="#FFF389"/>
<path d="M158.727 23.75H163.136V28.5H158.727V23.75Z" fill="#FFF389"/>
<path d="M154.318 28.5H158.727V33.25H154.318V28.5Z" fill="#FFF389"/>
<path d="M149.909 33.25H154.318V38H149.909V33.25Z" fill="#FFF389"/>
<path d="M149.909 38H154.318V42.75H149.909V38Z" fill="#FFF389"/>
<path d="M145.5 42.75H149.909V47.5H145.5V42.75Z" fill="#FFF389"/>
<path d="M145.5 47.5H149.909V52.25H145.5V47.5Z" fill="#FFF389"/>
<path d="M141.091 52.25H145.5V57H141.091V52.25Z" fill="#FFF389"/>
<path d="M136.682 57H141.091V61.75H136.682V57Z" fill="#FFF389"/>
<path d="M136.682 61.75H141.091V66.5H136.682V61.75Z" fill="#FFF389"/>
<path d="M132.273 66.5H136.682V71.25H132.273V66.5Z" fill="#FFF389"/>
<path d="M132.273 71.25H136.682V76H132.273V71.25Z" fill="#FFF389"/>
<path d="M127.864 76H132.273V80.75H127.864V76Z" fill="#FFF389"/>
<path d="M123.455 85.5H127.864V90.25H123.455V85.5Z" fill="#FFF389"/>
<path d="M119.045 90.25H123.455V95H119.045V90.25Z" fill="#FFF389"/>
<path d="M119.045 95H123.455V99.75H119.045V95Z" fill="#FFF389"/>
<path d="M123.455 99.75H127.864V104.5H123.455V99.75Z" fill="#FFF389"/>
<path d="M132.273 104.5H136.682V109.25H132.273V104.5Z" fill="#FFF389"/>
<path d="M141.091 109.25H145.5V114H141.091V109.25Z" fill="#FFF389"/>
<path d="M149.909 114H154.318V118.75H149.909V114Z" fill="#FFF389"/>
<path d="M154.318 118.75H158.727V123.5H154.318V118.75Z" fill="#FFF389"/>
<path d="M163.136 123.5H167.545V128.25H163.136V123.5Z" fill="#FFF389"/>
<path d="M171.955 128.25H176.364V133H171.955V128.25Z" fill="#FFF389"/>
<path d="M180.773 133H185.182V137.75H180.773V133Z" fill="#FFF389"/>
<path d="M189.591 137.75H194V142.5H189.591V137.75Z" fill="#FFF389"/>
<path d="M136.682 109.25H141.091V114H136.682V109.25Z" fill="#FFF389"/>
<path d="M145.5 114H149.909V118.75H145.5V114Z" fill="#FFF389"/>
<path d="M158.727 118.75H163.136V123.5H158.727V118.75Z" fill="#FFF389"/>
<path d="M167.545 123.5H171.955V128.25H167.545V123.5Z" fill="#FFF389"/>
<path d="M176.364 128.25H180.773V133H176.364V128.25Z" fill="#FFF389"/>
<path d="M185.182 137.75H189.591V142.5H185.182V137.75Z" fill="#FFF389"/>
<path d="M119.045 123.5H123.455V128.25H119.045V123.5Z" fill="#FFF389"/>
<path d="M141.091 128.25H145.5V133H141.091V128.25Z" fill="#FFF389"/>
<path d="M163.136 133H167.545V137.75H163.136V133Z" fill="#FFF389"/>
<path d="M110.227 123.5H114.636V128.25H110.227V123.5Z" fill="#FFF389"/>
<path d="M114.636 123.5H119.045V128.25H114.636V123.5Z" fill="#FFF389"/>
<path d="M127.864 123.5H132.273V128.25H127.864V123.5Z" fill="#FFF389"/>
<path d="M132.273 128.25H136.682V133H132.273V128.25Z" fill="#FFF389"/>
<path d="M136.682 128.25H141.091V133H136.682V128.25Z" fill="#FFF389"/>
<path d="M145.5 128.25H149.909V133H145.5V128.25Z" fill="#FFF389"/>
<path d="M149.909 128.25H154.318V133H149.909V128.25Z" fill="#FFF389"/>
<path d="M154.318 133H158.727V137.75H154.318V133Z" fill="#FFF389"/>
<path d="M158.727 133H163.136V137.75H158.727V133Z" fill="#FFF389"/>
<path d="M167.545 133H171.955V137.75H167.545V133Z" fill="#FFF389"/>
<path d="M171.955 133H176.364V137.75H171.955V133Z" fill="#FFF389"/>
<path d="M176.364 137.75H180.773V142.5H176.364V137.75Z" fill="#FFF389"/>
<path d="M180.773 137.75H185.182V142.5H180.773V137.75Z" fill="#FFF389"/>
<path d="M110.227 118.75H114.636V123.5H110.227V118.75Z" fill="#FFF389"/>
<path d="M105.818 128.25H110.227V133H105.818V128.25Z" fill="#FFF389"/>
<path d="M105.818 137.75H110.227V142.5H105.818V137.75Z" fill="#FFF389"/>
<path d="M105.818 142.5H110.227V147.25H105.818V142.5Z" fill="#FFF389"/>
<path d="M101.409 147.25H105.818V152H101.409V147.25Z" fill="#FFF389"/>
<path d="M101.409 152H105.818V156.75H101.409V152Z" fill="#FFF389"/>
<path d="M101.409 156.75H105.818V161.5H101.409V156.75Z" fill="#FFF389"/>
<path d="M101.409 161.5H105.818V166.25H101.409V161.5Z" fill="#FFF389"/>
<path d="M101.409 166.25H105.818V171H101.409V166.25Z" fill="#FFF389"/>
<path d="M97 171H101.409V175.75H97V171Z" fill="#FFF389"/>
<path d="M97 175.75H101.409V180.5H97V175.75Z" fill="#FFF389"/>
<path d="M97 180.5H101.409V185.25H97V180.5Z" fill="#FFF389"/>
<path d="M97 185.25H101.409V190H97V185.25Z" fill="#FFF389"/>
<path d="M97 190H101.409V194.75H97V190Z" fill="#FFF389"/>
<path d="M92.5909 194.75H97V199.5H92.5909V194.75Z" fill="#FFF389"/>
<path d="M92.5909 199.5H97V204.25H92.5909V199.5Z" fill="#FFF389"/>
<path d="M92.5909 204.25H97V209H92.5909V204.25Z" fill="#FFF389"/>
<path d="M83.7727 123.5H88.1818V128.25H83.7727V123.5Z" fill="#FFF389"/>
<path d="M83.7727 128.25H88.1818V133H83.7727V128.25Z" fill="#FFF389"/>
<path d="M83.7727 133H88.1818V137.75H83.7727V133Z" fill="#FFF389"/>
<path d="M83.7727 142.5H88.1818V147.25H83.7727V142.5Z" fill="#FFF389"/>
<path d="M88.1818 147.25H92.5909V152H88.1818V147.25Z" fill="#FFF389"/>
<path d="M88.1818 152H92.5909V156.75H88.1818V152Z" fill="#FFF389"/>
<path d="M88.1818 156.75H92.5909V161.5H88.1818V156.75Z" fill="#FFF389"/>
<path d="M88.1818 161.5H92.5909V166.25H88.1818V161.5Z" fill="#FFF389"/>
<path d="M88.1818 166.25H92.5909V171H88.1818V166.25Z" fill="#FFF389"/>
<path d="M88.1818 171H92.5909V175.75H88.1818V171Z" fill="#FFF389"/>
<path d="M88.1818 175.75H92.5909V180.5H88.1818V175.75Z" fill="#FFF389"/>
<path d="M88.1818 180.5H92.5909V185.25H88.1818V180.5Z" fill="#FFF389"/>
<path d="M92.5909 185.25H97V190H92.5909V185.25Z" fill="#FFF389"/>
<path d="M92.5909 190H97V194.75H92.5909V190Z" fill="#FFF389"/>
<path d="M83.7727 118.75H88.1818V123.5H83.7727V118.75Z" fill="#FFF389"/>
<path d="M44.0909 123.5H48.5V128.25H44.0909V123.5Z" fill="#FFF389"/>
<path d="M0 128.25H4.40909V133H0V128.25Z" fill="#FFF389"/>
<path d="M4.40909 128.25H8.81818V133H4.40909V128.25Z" fill="#FFF389"/>
<path d="M8.81818 128.25H13.2273V133H8.81818V128.25Z" fill="#FFF389"/>
<path d="M13.2273 128.25H17.6364V133H13.2273V128.25Z" fill="#FFF389"/>
<path d="M17.6364 128.25H22.0455V133H17.6364V128.25Z" fill="#FFF389"/>
<path d="M22.0455 128.25H26.4545V133H22.0455V128.25Z" fill="#FFF389"/>
<path d="M26.4545 123.5H30.8636V128.25H26.4545V123.5Z" fill="#FFF389"/>
<path d="M30.8636 123.5H35.2727V128.25H30.8636V123.5Z" fill="#FFF389"/>
<path d="M35.2727 123.5H39.6818V128.25H35.2727V123.5Z" fill="#FFF389"/>
<path d="M39.6818 123.5H44.0909V128.25H39.6818V123.5Z" fill="#FFF389"/>
<path d="M48.5 123.5H52.9091V128.25H48.5V123.5Z" fill="#FFF389"/>
<path d="M52.9091 123.5H57.3182V128.25H52.9091V123.5Z" fill="#FFF389"/>
<path d="M57.3182 123.5H61.7273V128.25H57.3182V123.5Z" fill="#FFF389"/>
<path d="M61.7273 123.5H66.1364V128.25H61.7273V123.5Z" fill="#FFF389"/>
<path d="M74.9545 118.75H79.3636V123.5H74.9545V118.75Z" fill="#FFF389"/>
<path d="M79.3636 118.75H83.7727V123.5H79.3636V118.75Z" fill="#FFF389"/>
<path d="M74.9545 95H79.3636V99.75H74.9545V95Z" fill="#FFF389"/>
<path d="M61.7273 99.75H66.1364V104.5H61.7273V99.75Z" fill="#FFF389"/>
<path d="M52.9091 104.5H57.3182V109.25H52.9091V104.5Z" fill="#FFF389"/>
<path d="M44.0909 109.25H48.5V114H44.0909V109.25Z" fill="#FFF389"/>
<path d="M30.8636 114H35.2727V118.75H30.8636V114Z" fill="#FFF389"/>
<path d="M22.0455 118.75H26.4545V123.5H22.0455V118.75Z" fill="#FFF389"/>
<path d="M8.81818 123.5H13.2273V128.25H8.81818V123.5Z" fill="#FFF389"/>
<path d="M13.2273 123.5H17.6364V128.25H13.2273V123.5Z" fill="#FFF389"/>
<path d="M17.6364 118.75H22.0455V123.5H17.6364V118.75Z" fill="#FFF389"/>
<path d="M26.4545 114H30.8636V118.75H26.4545V114Z" fill="#FFF389"/>
<path d="M35.2727 114H39.6818V118.75H35.2727V114Z" fill="#FFF389"/>
<path d="M39.6818 109.25H44.0909V114H39.6818V109.25Z" fill="#FFF389"/>
<path d="M48.5 104.5H52.9091V109.25H48.5V104.5Z" fill="#FFF389"/>
<path d="M57.3182 104.5H61.7273V109.25H57.3182V104.5Z" fill="#FFF389"/>
<path d="M66.1364 99.75H70.5455V104.5H66.1364V99.75Z" fill="#FFF389"/>
<path d="M70.5455 95H74.9545V99.75H70.5455V95Z" fill="#FFF389"/>
<path d="M39.6818 19H44.0909V23.75H39.6818V19Z" fill="#FFF389"/>
<path d="M44.0909 23.75H48.5V28.5H44.0909V23.75Z" fill="#FFF389"/>
<path d="M44.0909 28.5H48.5V33.25H44.0909V28.5Z" fill="#FFF389"/>
<path d="M48.5 33.25H52.9091V38H48.5V33.25Z" fill="#FFF389"/>
<path d="M48.5 38H52.9091V42.75H48.5V38Z" fill="#FFF389"/>
<path d="M52.9091 42.75H57.3182V47.5H52.9091V42.75Z" fill="#FFF389"/>
<path d="M52.9091 47.5H57.3182V52.25H52.9091V47.5Z" fill="#FFF389"/>
<path d="M57.3182 52.25H61.7273V57H57.3182V52.25Z" fill="#FFF389"/>
<path d="M57.3182 57H61.7273V61.75H57.3182V57Z" fill="#FFF389"/>
<path d="M61.7273 61.75H66.1364V66.5H61.7273V61.75Z" fill="#FFF389"/>
<path d="M61.7273 66.5H66.1364V71.25H61.7273V66.5Z" fill="#FFF389"/>
<path d="M66.1364 71.25H70.5455V76H66.1364V71.25Z" fill="#FFF389"/>
<path d="M66.1364 76H70.5455V80.75H66.1364V76Z" fill="#FFF389"/>
<path d="M70.5455 85.5H74.9545V90.25H70.5455V85.5Z" fill="#FFF389"/>
<path d="M74.9545 90.25H79.3636V95H74.9545V90.25Z" fill="#FFF389"/>
<path d="M39.6818 14.25H44.0909V19H39.6818V14.25Z" fill="#FFF389"/>
<path d="M44.0909 19H48.5V23.75H44.0909V19Z" fill="#FFF389"/>
<path d="M48.5 23.75H52.9091V28.5H48.5V23.75Z" fill="#FFF389"/>
<path d="M52.9091 28.5H57.3182V33.25H52.9091V28.5Z" fill="#FFF389"/>
<path d="M57.3182 33.25H61.7273V38H57.3182V33.25Z" fill="#FFF389"/>
<path d="M61.7273 38H66.1364V42.75H61.7273V38Z" fill="#FFF389"/>
<path d="M66.1364 42.75H70.5455V47.5H66.1364V42.75Z" fill="#FFF389"/>
<path d="M70.5455 47.5H74.9545V52.25H70.5455V47.5Z" fill="#FFF389"/>
<path d="M70.5455 52.25H74.9545V57H70.5455V52.25Z" fill="#FFF389"/>
<path d="M74.9545 57H79.3636V61.75H74.9545V57Z" fill="#FFF389"/>
<path d="M79.3636 61.75H83.7727V66.5H79.3636V61.75Z" fill="#FFF389"/>
<path d="M88.1818 71.25H92.5909V76H88.1818V71.25Z" fill="#FFF389"/>
<path d="M92.5909 76H97V80.75H92.5909V76Z" fill="#FFF389"/>
<path d="M97 80.75H101.409V85.5H97V80.75Z" fill="#FFF389"/>
<path d="M154.318 23.75H158.727V28.5H154.318V23.75Z" fill="#FFF389"/>
<path d="M149.909 28.5H154.318V33.25H149.909V28.5Z" fill="#FFF389"/>
<path d="M145.5 33.25H149.909V38H145.5V33.25Z" fill="#FFF389"/>
<path d="M141.091 38H145.5V42.75H141.091V38Z" fill="#FFF389"/>
<path d="M136.682 42.75H141.091V47.5H136.682V42.75Z" fill="#FFF389"/>
<path d="M132.273 47.5H136.682V52.25H132.273V47.5Z" fill="#FFF389"/>
<path d="M127.864 52.25H132.273V57H127.864V52.25Z" fill="#FFF389"/>
<path d="M119.045 57H123.455V61.75H119.045V57Z" fill="#FFF389"/>
<path d="M114.636 61.75H119.045V66.5H114.636V61.75Z" fill="#FFF389"/>
<path d="M110.227 66.5H114.636V71.25H110.227V66.5Z" fill="#FFF389"/>
<path d="M101.409 76H105.818V80.75H101.409V76Z" fill="#FFF389"/>
<path d="M123.455 52.25H127.864V57H123.455V52.25Z" fill="#FFF389"/>
<path d="M110.227 85.5H105.818V80.75H101.409V85.5H97V80.75H92.5909V76H88.1818V80.75V85.5V90.25H83.7727H79.3636V95V99.75H74.9545H70.5455V104.5H74.9545V109.25H79.3636V114H74.9545V118.75H79.3636H83.7727H88.1818V123.5V128.25V133H92.5909V128.25H97V123.5H101.409V128.25H105.818H110.227V123.5V118.75H114.636V123.5H119.045H123.455V118.75H119.045V114H114.636V109.25H119.045H123.455V104.5V99.75H119.045V95V90.25H123.455V85.5H119.045H114.636V90.25H110.227V85.5Z" fill="#FFF389"/>
<path d="M30.8636 85.5H35.2727V90.25H39.6818H44.0909V95H48.5H52.9091V99.75H57.3182H61.7273H66.1364H70.5455V95H74.9545V90.25H70.5455V85.5H66.1364H61.7273H57.3182H52.9091V80.75H48.5H44.0909H39.6818H35.2727H30.8636H26.4545V85.5H30.8636Z" fill="#FFF389"/>
<path d="M70.5455 80.75H74.9545H79.3636V85.5H83.7727V80.75V76V71.25V66.5H79.3636V61.75H74.9545V57H70.5455V52.25V47.5H66.1364V42.75H61.7273V38H57.3182V33.25H52.9091V38V42.75H57.3182V47.5V52.25H61.7273V57V61.75H66.1364V66.5V71.25H70.5455V76V80.75Z" fill="#FFF389"/>
<path d="M101.409 28.5H97V33.25H92.5909V38V42.75V47.5V52.25V57V61.75H88.1818V66.5V71.25H92.5909V76H97V80.75H101.409V76H105.818V71.25V66.5V61.75V57H101.409V52.25V47.5V42.75V38V33.25V28.5Z" fill="#FFF389"/>
<path d="M110.227 71.25V76V80.75V85.5H114.636V80.75H119.045H123.455H127.864V76H132.273V71.25V66.5H136.682V61.75V57H141.091V52.25H145.5V47.5V42.75H141.091V47.5H136.682V52.25H132.273V57H127.864H123.455V61.75H119.045V66.5H114.636V71.25H110.227Z" fill="#FFF389"/>
<path d="M158.727 80.75H154.318H149.909H145.5H141.091V85.5H136.682H132.273H127.864V90.25H123.455V95V99.75H127.864V104.5H132.273V99.75H136.682H141.091V95H145.5H149.909V90.25H154.318H158.727V85.5H163.136H167.545V80.75H163.136H158.727Z" fill="#FFF389"/>
<path d="M127.864 109.25H123.455V114V118.75H127.864V123.5H132.273V128.25H136.682H141.091H145.5H149.909H154.318V133H158.727H163.136H167.545H171.955V128.25H167.545H163.136V123.5H158.727H154.318V118.75H149.909H145.5V114H141.091H136.682V109.25H132.273H127.864Z" fill="#FFF389"/>
<path d="M127.864 128.25H123.455H119.045H114.636H110.227V133V137.75H114.636V142.5H119.045V147.25H123.455V152H127.864V156.75H132.273V161.5H136.682V166.25H141.091V161.5V156.75H136.682V152V147.25H132.273V142.5V137.75H127.864V133V128.25Z" fill="#FFF389"/>
<path d="M105.818 133H101.409H97H92.5909V137.75H88.1818V142.5V147.25H92.5909V152V156.75V161.5V166.25V171V175.75V180.5V185.25H97V180.5V175.75V171H101.409V166.25V161.5V156.75V152V147.25H105.818V142.5V137.75V133Z" fill="#FFF389"/>
<path d="M74.9545 142.5H79.3636V137.75H83.7727V133V128.25V123.5H79.3636H74.9545H70.5455V128.25V133H66.1364V137.75H61.7273V142.5V147.25H57.3182V152V156.75H52.9091V161.5V166.25H57.3182V161.5H61.7273V156.75H66.1364V152H70.5455V147.25H74.9545V142.5Z" fill="#FFF389"/>
<path d="M74.9545 114V109.25H70.5455H66.1364H61.7273H57.3182H52.9091H48.5V114H44.0909H39.6818V118.75H35.2727H30.8636H26.4545V123.5H30.8636H35.2727H39.6818H44.0909H48.5H52.9091H57.3182H61.7273H66.1364H70.5455V118.75V114H74.9545Z" fill="#FFF389"/>
<path d="M79.3636 85.5H74.9545V90.25H79.3636V85.5Z" fill="#FFF389"/>
<path d="M149.909 171H145.5V175.75H149.909V171Z" fill="#FFF389"/>
<path d="M145.5 166.25H141.091V171H145.5V166.25Z" fill="#FFF389"/>
<path d="M180.773 137.75V133H176.364V137.75H180.773Z" fill="#FFF389"/>
<path d="M171.955 76V80.75H176.364V76H171.955Z" fill="#FFF389"/>
<path d="M149.909 42.75V38H145.5V42.75H149.909Z" fill="#FFF389"/>
<path d="M48.5 28.5V33.25H52.9091V28.5H48.5Z" fill="#FFF389"/>
<path d="M17.6364 80.75H22.0455V76H17.6364V80.75Z" fill="#FFF389"/>
<path d="M17.6364 128.25H22.0455H26.4545V123.5H22.0455H17.6364V128.25Z" fill="#FFF389"/>
<path d="M52.9091 171V166.25H48.5V171H52.9091Z" fill="#FFF389"/>
</svg>
