<svg width="146" height="157" viewBox="0 0 146 157" fill="none" xmlns="http://www.w3.org/2000/svg">
<path d="M73 0H76.3182V3.56818H73V0Z" fill="#FFF389"/>
<path d="M73 3.56818H76.3182V7.13636H73V3.56818Z" fill="#FFF389"/>
<path d="M73 7.13636H76.3182V10.7045H73V7.13636Z" fill="#FFF389"/>
<path d="M73 10.7045H76.3182V14.2727H73V10.7045Z" fill="#FFF389"/>
<path d="M73 14.2727H76.3182V17.8409H73V14.2727Z" fill="#FFF389"/>
<path d="M73 17.8409H76.3182V21.4091H73V17.8409Z" fill="#FFF389"/>
<path d="M76.3182 21.4091H79.6364V24.9773H76.3182V21.4091Z" fill="#FFF389"/>
<path d="M76.3182 24.9773H79.6364V28.5455H76.3182V24.9773Z" fill="#FFF389"/>
<path d="M76.3182 28.5455H79.6364V32.1136H76.3182V28.5455Z" fill="#FFF389"/>
<path d="M76.3182 32.1136H79.6364V35.6818H76.3182V32.1136Z" fill="#FFF389"/>
<path d="M76.3182 35.6818H79.6364V39.25H76.3182V35.6818Z" fill="#FFF389"/>
<path d="M76.3182 39.25H79.6364V42.8182H76.3182V39.25Z" fill="#FFF389"/>
<path d="M79.6364 42.8182H82.9545V46.3864H79.6364V42.8182Z" fill="#FFF389"/>
<path d="M79.6364 46.3864H82.9545V49.9545H79.6364V46.3864Z" fill="#FFF389"/>
<path d="M79.6364 49.9545H82.9545V53.5227H79.6364V49.9545Z" fill="#FFF389"/>
<path d="M79.6364 53.5227H82.9545V57.0909H79.6364V53.5227Z" fill="#FFF389"/>
<path d="M79.6364 57.0909H82.9545V60.6591H79.6364V57.0909Z" fill="#FFF389"/>
<path d="M79.6364 60.6591H82.9545V64.2273H79.6364V60.6591Z" fill="#FFF389"/>
<path d="M82.9545 64.2273H86.2727V67.7955H82.9545V64.2273Z" fill="#FFF389"/>
<path d="M139.364 53.5227H142.682V57.0909H139.364V53.5227Z" fill="#FFF389"/>
<path d="M116.136 57.0909H119.455V60.6591H116.136V57.0909Z" fill="#FFF389"/>
<path d="M96.2273 60.6591H99.5455V64.2273H96.2273V60.6591Z" fill="#FFF389"/>
<path d="M86.2727 60.6591H89.5909V64.2273H86.2727V60.6591Z" fill="#FFF389"/>
<path d="M89.5909 60.6591H92.9091V64.2273H89.5909V60.6591Z" fill="#FFF389"/>
<path d="M92.9091 60.6591H96.2273V64.2273H92.9091V60.6591Z" fill="#FFF389"/>
<path d="M99.5455 60.6591H102.864V64.2273H99.5455V60.6591Z" fill="#FFF389"/>
<path d="M102.864 60.6591H106.182V64.2273H102.864V60.6591Z" fill="#FFF389"/>
<path d="M106.182 57.0909H109.5V60.6591H106.182V57.0909Z" fill="#FFF389"/>
<path d="M109.5 57.0909H112.818V60.6591H109.5V57.0909Z" fill="#FFF389"/>
<path d="M112.818 57.0909H116.136V60.6591H112.818V57.0909Z" fill="#FFF389"/>
<path d="M119.455 57.0909H122.773V60.6591H119.455V57.0909Z" fill="#FFF389"/>
<path d="M122.773 57.0909H126.091V60.6591H122.773V57.0909Z" fill="#FFF389"/>
<path d="M126.091 57.0909H129.409V60.6591H126.091V57.0909Z" fill="#FFF389"/>
<path d="M129.409 53.5227H132.727V57.0909H129.409V53.5227Z" fill="#FFF389"/>
<path d="M132.727 53.5227H136.045V57.0909H132.727V53.5227Z" fill="#FFF389"/>
<path d="M136.045 53.5227H139.364V57.0909H136.045V53.5227Z" fill="#FFF389"/>
<path d="M142.682 53.5227H146V57.0909H142.682V53.5227Z" fill="#FFF389"/>
<path d="M136.045 57.0909H139.364V60.6591H136.045V57.0909Z" fill="#FFF389"/>
<path d="M129.409 60.6591H132.727V64.2273H129.409V60.6591Z" fill="#FFF389"/>
<path d="M122.773 64.2273H126.091V67.7955H122.773V64.2273Z" fill="#FFF389"/>
<path d="M116.136 67.7955H119.455V71.3636H116.136V67.7955Z" fill="#FFF389"/>
<path d="M106.182 71.3636H109.5V74.9318H106.182V71.3636Z" fill="#FFF389"/>
<path d="M99.5455 74.9318H102.864V78.5H99.5455V74.9318Z" fill="#FFF389"/>
<path d="M92.9091 78.5H96.2273V82.0682H92.9091V78.5Z" fill="#FFF389"/>
<path d="M89.5909 82.0682H92.9091V85.6364H89.5909V82.0682Z" fill="#FFF389"/>
<path d="M96.2273 78.5H99.5455V82.0682H96.2273V78.5Z" fill="#FFF389"/>
<path d="M102.864 74.9318H106.182V78.5H102.864V74.9318Z" fill="#FFF389"/>
<path d="M109.5 71.3636H112.818V74.9318H109.5V71.3636Z" fill="#FFF389"/>
<path d="M112.818 67.7955H116.136V71.3636H112.818V67.7955Z" fill="#FFF389"/>
<path d="M119.455 64.2273H122.773V67.7955H119.455V64.2273Z" fill="#FFF389"/>
<path d="M126.091 60.6591H129.409V64.2273H126.091V60.6591Z" fill="#FFF389"/>
<path d="M132.727 57.0909H136.045V60.6591H132.727V57.0909Z" fill="#FFF389"/>
<path d="M86.2727 82.0682H89.5909V85.6364H86.2727V82.0682Z" fill="#FFF389"/>
<path d="M89.5909 85.6364H92.9091V89.2046H89.5909V85.6364Z" fill="#FFF389"/>
<path d="M92.9091 89.2046H96.2273V92.7727H92.9091V89.2046Z" fill="#FFF389"/>
<path d="M92.9091 92.7727H96.2273V96.3409H92.9091V92.7727Z" fill="#FFF389"/>
<path d="M96.2273 96.3409H99.5455V99.9091H96.2273V96.3409Z" fill="#FFF389"/>
<path d="M96.2273 99.9091H99.5455V103.477H96.2273V99.9091Z" fill="#FFF389"/>
<path d="M99.5455 103.477H102.864V107.045H99.5455V103.477Z" fill="#FFF389"/>
<path d="M99.5455 107.045H102.864V110.614H99.5455V107.045Z" fill="#FFF389"/>
<path d="M102.864 110.614H106.182V114.182H102.864V110.614Z" fill="#FFF389"/>
<path d="M102.864 114.182H106.182V117.75H102.864V114.182Z" fill="#FFF389"/>
<path d="M106.182 117.75H109.5V121.318H106.182V117.75Z" fill="#FFF389"/>
<path d="M106.182 121.318H109.5V124.886H106.182V121.318Z" fill="#FFF389"/>
<path d="M109.5 124.886H112.818V128.455H109.5V124.886Z" fill="#FFF389"/>
<path d="M112.818 128.455H116.136V132.023H112.818V128.455Z" fill="#FFF389"/>
<path d="M112.818 132.023H116.136V135.591H112.818V132.023Z" fill="#FFF389"/>
<path d="M116.136 135.591H119.455V139.159H116.136V135.591Z" fill="#FFF389"/>
<path d="M116.136 139.159H119.455V142.727H116.136V139.159Z" fill="#FFF389"/>
<path d="M76.3182 96.3409H79.6364V99.9091H76.3182V96.3409Z" fill="#FFF389"/>
<path d="M79.6364 99.9091H82.9545V103.477H79.6364V99.9091Z" fill="#FFF389"/>
<path d="M82.9545 103.477H86.2727V107.045H82.9545V103.477Z" fill="#FFF389"/>
<path d="M86.2727 107.045H89.5909V110.614H86.2727V107.045Z" fill="#FFF389"/>
<path d="M89.5909 110.614H92.9091V114.182H89.5909V110.614Z" fill="#FFF389"/>
<path d="M92.9091 114.182H96.2273V117.75H92.9091V114.182Z" fill="#FFF389"/>
<path d="M96.2273 117.75H99.5455V121.318H96.2273V117.75Z" fill="#FFF389"/>
<path d="M99.5455 121.318H102.864V124.886H99.5455V121.318Z" fill="#FFF389"/>
<path d="M102.864 124.886H106.182V128.455H102.864V124.886Z" fill="#FFF389"/>
<path d="M106.182 128.455H109.5V132.023H106.182V128.455Z" fill="#FFF389"/>
<path d="M109.5 132.023H112.818V135.591H109.5V132.023Z" fill="#FFF389"/>
<path d="M112.818 135.591H116.136V139.159H112.818V135.591Z" fill="#FFF389"/>
<path d="M73 96.3409H76.3182V99.9091H73V96.3409Z" fill="#FFF389"/>
<path d="M73 92.7727H76.3182V96.3409H73V92.7727Z" fill="#FFF389"/>
<path d="M69.6818 96.3409H73V99.9091H69.6818V96.3409Z" fill="#FFF389"/>
<path d="M66.3636 99.9091H69.6818V103.477H66.3636V99.9091Z" fill="#FFF389"/>
<path d="M63.0455 103.477H66.3636V107.045H63.0455V103.477Z" fill="#FFF389"/>
<path d="M56.4091 107.045H59.7273V110.614H56.4091V107.045Z" fill="#FFF389"/>
<path d="M53.0909 110.614H56.4091V114.182H53.0909V110.614Z" fill="#FFF389"/>
<path d="M49.7727 114.182H53.0909V117.75H49.7727V114.182Z" fill="#FFF389"/>
<path d="M46.4545 117.75H49.7727V121.318H46.4545V117.75Z" fill="#FFF389"/>
<path d="M43.1364 121.318H46.4545V124.886H43.1364V121.318Z" fill="#FFF389"/>
<path d="M39.8182 124.886H43.1364V128.455H39.8182V124.886Z" fill="#FFF389"/>
<path d="M36.5 128.455H39.8182V132.023H36.5V128.455Z" fill="#FFF389"/>
<path d="M33.1818 132.023H36.5V135.591H33.1818V132.023Z" fill="#FFF389"/>
<path d="M29.8636 135.591H33.1818V139.159H29.8636V135.591Z" fill="#FFF389"/>
<path d="M59.7273 103.477H63.0455V107.045H59.7273V103.477Z" fill="#FFF389"/>
<path d="M26.5455 139.159H29.8636V142.727H26.5455V139.159Z" fill="#FFF389"/>
<path d="M56.4091 82.0682H59.7273V85.6364H56.4091V82.0682Z" fill="#FFF389"/>
<path d="M53.0909 85.6364H56.4091V89.2046H53.0909V85.6364Z" fill="#FFF389"/>
<path d="M53.0909 89.2046H56.4091V92.7727H53.0909V89.2046Z" fill="#FFF389"/>
<path d="M49.7727 92.7727H53.0909V96.3409H49.7727V92.7727Z" fill="#FFF389"/>
<path d="M49.7727 96.3409H53.0909V99.9091H49.7727V96.3409Z" fill="#FFF389"/>
<path d="M46.4545 99.9091H49.7727V103.477H46.4545V99.9091Z" fill="#FFF389"/>
<path d="M43.1364 103.477H46.4545V107.045H43.1364V103.477Z" fill="#FFF389"/>
<path d="M43.1364 107.045H46.4545V110.614H43.1364V107.045Z" fill="#FFF389"/>
<path d="M39.8182 110.614H43.1364V114.182H39.8182V110.614Z" fill="#FFF389"/>
<path d="M39.8182 114.182H43.1364V117.75H39.8182V114.182Z" fill="#FFF389"/>
<path d="M36.5 117.75H39.8182V121.318H36.5V117.75Z" fill="#FFF389"/>
<path d="M36.5 121.318H39.8182V124.886H36.5V121.318Z" fill="#FFF389"/>
<path d="M33.1818 124.886H36.5V128.455H33.1818V124.886Z" fill="#FFF389"/>
<path d="M33.1818 128.455H36.5V132.023H33.1818V128.455Z" fill="#FFF389"/>
<path d="M29.8636 132.023H33.1818V135.591H29.8636V132.023Z" fill="#FFF389"/>
<path d="M0 53.5227H3.31818V57.0909H0V53.5227Z" fill="#FFF389"/>
<path d="M6.63636 57.0909H9.95455V60.6591H6.63636V57.0909Z" fill="#FFF389"/>
<path d="M13.2727 60.6591H16.5909V64.2273H13.2727V60.6591Z" fill="#FFF389"/>
<path d="M23.2273 64.2273H26.5455V67.7955H23.2273V64.2273Z" fill="#FFF389"/>
<path d="M29.8636 67.7955H33.1818V71.3636H29.8636V67.7955Z" fill="#FFF389"/>
<path d="M36.5 71.3636H39.8182V74.9318H36.5V71.3636Z" fill="#FFF389"/>
<path d="M43.1364 74.9318H46.4545V78.5H43.1364V74.9318Z" fill="#FFF389"/>
<path d="M49.7727 78.5H53.0909V82.0682H49.7727V78.5Z" fill="#FFF389"/>
<path d="M3.31818 53.5227H6.63636V57.0909H3.31818V53.5227Z" fill="#FFF389"/>
<path d="M9.95455 57.0909H13.2727V60.6591H9.95455V57.0909Z" fill="#FFF389"/>
<path d="M16.5909 60.6591H19.9091V64.2273H16.5909V60.6591Z" fill="#FFF389"/>
<path d="M19.9091 64.2273H23.2273V67.7955H19.9091V64.2273Z" fill="#FFF389"/>
<path d="M26.5455 67.7955H29.8636V71.3636H26.5455V67.7955Z" fill="#FFF389"/>
<path d="M33.1818 71.3636H36.5V74.9318H33.1818V71.3636Z" fill="#FFF389"/>
<path d="M39.8182 74.9318H43.1364V78.5H39.8182V74.9318Z" fill="#FFF389"/>
<path d="M46.4545 78.5H49.7727V82.0682H46.4545V78.5Z" fill="#FFF389"/>
<path d="M53.0909 78.5H56.4091V82.0682H53.0909V78.5Z" fill="#FFF389"/>
<path d="M26.5455 57.0909H29.8636V60.6591H26.5455V57.0909Z" fill="#FFF389"/>
<path d="M49.7727 60.6591H53.0909V64.2273H49.7727V60.6591Z" fill="#FFF389"/>
<path d="M6.63636 53.5227H9.95455V57.0909H6.63636V53.5227Z" fill="#FFF389"/>
<path d="M9.95455 53.5227H13.2727V57.0909H9.95455V53.5227Z" fill="#FFF389"/>
<path d="M13.2727 53.5227H16.5909V57.0909H13.2727V53.5227Z" fill="#FFF389"/>
<path d="M16.5909 57.0909H19.9091V60.6591H16.5909V57.0909Z" fill="#FFF389"/>
<path d="M19.9091 57.0909H23.2273V60.6591H19.9091V57.0909Z" fill="#FFF389"/>
<path d="M23.2273 57.0909H26.5455V60.6591H23.2273V57.0909Z" fill="#FFF389"/>
<path d="M29.8636 57.0909H33.1818V60.6591H29.8636V57.0909Z" fill="#FFF389"/>
<path d="M33.1818 57.0909H36.5V60.6591H33.1818V57.0909Z" fill="#FFF389"/>
<path d="M36.5 57.0909H39.8182V60.6591H36.5V57.0909Z" fill="#FFF389"/>
<path d="M39.8182 60.6591H43.1364V64.2273H39.8182V60.6591Z" fill="#FFF389"/>
<path d="M43.1364 60.6591H46.4545V64.2273H43.1364V60.6591Z" fill="#FFF389"/>
<path d="M46.4545 60.6591H49.7727V64.2273H46.4545V60.6591Z" fill="#FFF389"/>
<path d="M53.0909 60.6591H56.4091V64.2273H53.0909V60.6591Z" fill="#FFF389"/>
<path d="M56.4091 60.6591H59.7273V64.2273H56.4091V60.6591Z" fill="#FFF389"/>
<path d="M59.7273 64.2273H63.0455V67.7955H59.7273V64.2273Z" fill="#FFF389"/>
<path d="M63.0455 64.2273H66.3636V67.7955H63.0455V64.2273Z" fill="#FFF389"/>
<path d="M69.6818 3.56818H73V7.13636H69.6818V3.56818Z" fill="#FFF389"/>
<path d="M69.6818 7.13636H73V10.7045H69.6818V7.13636Z" fill="#FFF389"/>
<path d="M69.6818 10.7045H73V14.2727H69.6818V10.7045Z" fill="#FFF389"/>
<path d="M69.6818 14.2727H73V17.8409H69.6818V14.2727Z" fill="#FFF389"/>
<path d="M69.6818 17.8409H73V21.4091H69.6818V17.8409Z" fill="#FFF389"/>
<path d="M69.6818 21.4091H73V24.9773H69.6818V21.4091Z" fill="#FFF389"/>
<path d="M66.3636 24.9773H69.6818V28.5455H66.3636V24.9773Z" fill="#FFF389"/>
<path d="M66.3636 28.5455H69.6818V32.1136H66.3636V28.5455Z" fill="#FFF389"/>
<path d="M66.3636 32.1136H69.6818V35.6818H66.3636V32.1136Z" fill="#FFF389"/>
<path d="M66.3636 35.6818H69.6818V39.25H66.3636V35.6818Z" fill="#FFF389"/>
<path d="M66.3636 39.25H69.6818V42.8182H66.3636V39.25Z" fill="#FFF389"/>
<path d="M66.3636 42.8182H69.6818V46.3864H66.3636V42.8182Z" fill="#FFF389"/>
<path d="M63.0455 46.3864H66.3636V49.9545H63.0455V46.3864Z" fill="#FFF389"/>
<path d="M63.0455 49.9545H66.3636V53.5227H63.0455V49.9545Z" fill="#FFF389"/>
<path d="M63.0455 53.5227H66.3636V57.0909H63.0455V53.5227Z" fill="#FFF389"/>
<path d="M63.0455 57.0909H66.3636V60.6591H63.0455V57.0909Z" fill="#FFF389"/>
<path d="M63.0455 60.6591H66.3636V64.2273H63.0455V60.6591Z" fill="#FFF389"/>
<path d="M119.455 17.8409H122.773V21.4091H119.455V17.8409Z" fill="#FFF389"/>
<path d="M116.136 21.4091H119.455V24.9773H116.136V21.4091Z" fill="#FFF389"/>
<path d="M112.818 24.9773H116.136V28.5455H112.818V24.9773Z" fill="#FFF389"/>
<path d="M112.818 28.5455H116.136V32.1136H112.818V28.5455Z" fill="#FFF389"/>
<path d="M109.5 32.1136H112.818V35.6818H109.5V32.1136Z" fill="#FFF389"/>
<path d="M109.5 35.6818H112.818V39.25H109.5V35.6818Z" fill="#FFF389"/>
<path d="M106.182 39.25H109.5V42.8182H106.182V39.25Z" fill="#FFF389"/>
<path d="M102.864 42.8182H106.182V46.3864H102.864V42.8182Z" fill="#FFF389"/>
<path d="M102.864 46.3864H106.182V49.9545H102.864V46.3864Z" fill="#FFF389"/>
<path d="M99.5455 49.9545H102.864V53.5227H99.5455V49.9545Z" fill="#FFF389"/>
<path d="M99.5455 53.5227H102.864V57.0909H99.5455V53.5227Z" fill="#FFF389"/>
<path d="M96.2273 57.0909H99.5455V60.6591H96.2273V57.0909Z" fill="#FFF389"/>
<path d="M92.9091 64.2273H96.2273V67.7955H92.9091V64.2273Z" fill="#FFF389"/>
<path d="M89.5909 67.7955H92.9091V71.3636H89.5909V67.7955Z" fill="#FFF389"/>
<path d="M89.5909 71.3636H92.9091V74.9318H89.5909V71.3636Z" fill="#FFF389"/>
<path d="M92.9091 74.9318H96.2273V78.5H92.9091V74.9318Z" fill="#FFF389"/>
<path d="M99.5455 78.5H102.864V82.0682H99.5455V78.5Z" fill="#FFF389"/>
<path d="M106.182 82.0682H109.5V85.6364H106.182V82.0682Z" fill="#FFF389"/>
<path d="M112.818 85.6364H116.136V89.2046H112.818V85.6364Z" fill="#FFF389"/>
<path d="M116.136 89.2046H119.455V92.7727H116.136V89.2046Z" fill="#FFF389"/>
<path d="M122.773 92.7727H126.091V96.3409H122.773V92.7727Z" fill="#FFF389"/>
<path d="M129.409 96.3409H132.727V99.9091H129.409V96.3409Z" fill="#FFF389"/>
<path d="M136.045 99.9091H139.364V103.477H136.045V99.9091Z" fill="#FFF389"/>
<path d="M142.682 103.477H146V107.045H142.682V103.477Z" fill="#FFF389"/>
<path d="M102.864 82.0682H106.182V85.6364H102.864V82.0682Z" fill="#FFF389"/>
<path d="M109.5 85.6364H112.818V89.2046H109.5V85.6364Z" fill="#FFF389"/>
<path d="M119.455 89.2046H122.773V92.7727H119.455V89.2046Z" fill="#FFF389"/>
<path d="M126.091 92.7727H129.409V96.3409H126.091V92.7727Z" fill="#FFF389"/>
<path d="M132.727 96.3409H136.045V99.9091H132.727V96.3409Z" fill="#FFF389"/>
<path d="M139.364 103.477H142.682V107.045H139.364V103.477Z" fill="#FFF389"/>
<path d="M89.5909 92.7727H92.9091V96.3409H89.5909V92.7727Z" fill="#FFF389"/>
<path d="M106.182 96.3409H109.5V99.9091H106.182V96.3409Z" fill="#FFF389"/>
<path d="M122.773 99.9091H126.091V103.477H122.773V99.9091Z" fill="#FFF389"/>
<path d="M82.9545 92.7727H86.2727V96.3409H82.9545V92.7727Z" fill="#FFF389"/>
<path d="M86.2727 92.7727H89.5909V96.3409H86.2727V92.7727Z" fill="#FFF389"/>
<path d="M96.2273 92.7727H99.5455V96.3409H96.2273V92.7727Z" fill="#FFF389"/>
<path d="M99.5455 96.3409H102.864V99.9091H99.5455V96.3409Z" fill="#FFF389"/>
<path d="M102.864 96.3409H106.182V99.9091H102.864V96.3409Z" fill="#FFF389"/>
<path d="M109.5 96.3409H112.818V99.9091H109.5V96.3409Z" fill="#FFF389"/>
<path d="M112.818 96.3409H116.136V99.9091H112.818V96.3409Z" fill="#FFF389"/>
<path d="M116.136 99.9091H119.455V103.477H116.136V99.9091Z" fill="#FFF389"/>
<path d="M119.455 99.9091H122.773V103.477H119.455V99.9091Z" fill="#FFF389"/>
<path d="M126.091 99.9091H129.409V103.477H126.091V99.9091Z" fill="#FFF389"/>
<path d="M129.409 99.9091H132.727V103.477H129.409V99.9091Z" fill="#FFF389"/>
<path d="M132.727 103.477H136.045V107.045H132.727V103.477Z" fill="#FFF389"/>
<path d="M136.045 103.477H139.364V107.045H136.045V103.477Z" fill="#FFF389"/>
<path d="M82.9545 89.2046H86.2727V92.7727H82.9545V89.2046Z" fill="#FFF389"/>
<path d="M79.6364 96.3409H82.9545V99.9091H79.6364V96.3409Z" fill="#FFF389"/>
<path d="M79.6364 103.477H82.9545V107.045H79.6364V103.477Z" fill="#FFF389"/>
<path d="M79.6364 107.045H82.9545V110.614H79.6364V107.045Z" fill="#FFF389"/>
<path d="M76.3182 110.614H79.6364V114.182H76.3182V110.614Z" fill="#FFF389"/>
<path d="M76.3182 114.182H79.6364V117.75H76.3182V114.182Z" fill="#FFF389"/>
<path d="M76.3182 117.75H79.6364V121.318H76.3182V117.75Z" fill="#FFF389"/>
<path d="M76.3182 121.318H79.6364V124.886H76.3182V121.318Z" fill="#FFF389"/>
<path d="M76.3182 124.886H79.6364V128.455H76.3182V124.886Z" fill="#FFF389"/>
<path d="M73 128.455H76.3182V132.023H73V128.455Z" fill="#FFF389"/>
<path d="M73 132.023H76.3182V135.591H73V132.023Z" fill="#FFF389"/>
<path d="M73 135.591H76.3182V139.159H73V135.591Z" fill="#FFF389"/>
<path d="M73 139.159H76.3182V142.727H73V139.159Z" fill="#FFF389"/>
<path d="M73 142.727H76.3182V146.295H73V142.727Z" fill="#FFF389"/>
<path d="M69.6818 146.295H73V149.864H69.6818V146.295Z" fill="#FFF389"/>
<path d="M69.6818 149.864H73V153.432H69.6818V149.864Z" fill="#FFF389"/>
<path d="M69.6818 153.432H73V157H69.6818V153.432Z" fill="#FFF389"/>
<path d="M63.0455 92.7727H66.3636V96.3409H63.0455V92.7727Z" fill="#FFF389"/>
<path d="M63.0455 96.3409H66.3636V99.9091H63.0455V96.3409Z" fill="#FFF389"/>
<path d="M63.0455 99.9091H66.3636V103.477H63.0455V99.9091Z" fill="#FFF389"/>
<path d="M63.0455 107.045H66.3636V110.614H63.0455V107.045Z" fill="#FFF389"/>
<path d="M66.3636 110.614H69.6818V114.182H66.3636V110.614Z" fill="#FFF389"/>
<path d="M66.3636 114.182H69.6818V117.75H66.3636V114.182Z" fill="#FFF389"/>
<path d="M66.3636 117.75H69.6818V121.318H66.3636V117.75Z" fill="#FFF389"/>
<path d="M66.3636 121.318H69.6818V124.886H66.3636V121.318Z" fill="#FFF389"/>
<path d="M66.3636 124.886H69.6818V128.455H66.3636V124.886Z" fill="#FFF389"/>
<path d="M66.3636 128.455H69.6818V132.023H66.3636V128.455Z" fill="#FFF389"/>
<path d="M66.3636 132.023H69.6818V135.591H66.3636V132.023Z" fill="#FFF389"/>
<path d="M66.3636 135.591H69.6818V139.159H66.3636V135.591Z" fill="#FFF389"/>
<path d="M69.6818 139.159H73V142.727H69.6818V139.159Z" fill="#FFF389"/>
<path d="M69.6818 142.727H73V146.295H69.6818V142.727Z" fill="#FFF389"/>
<path d="M63.0455 89.2046H66.3636V92.7727H63.0455V89.2046Z" fill="#FFF389"/>
<path d="M33.1818 92.7727H36.5V96.3409H33.1818V92.7727Z" fill="#FFF389"/>
<path d="M0 96.3409H3.31818V99.9091H0V96.3409Z" fill="#FFF389"/>
<path d="M3.31818 96.3409H6.63636V99.9091H3.31818V96.3409Z" fill="#FFF389"/>
<path d="M6.63636 96.3409H9.95455V99.9091H6.63636V96.3409Z" fill="#FFF389"/>
<path d="M9.95455 96.3409H13.2727V99.9091H9.95455V96.3409Z" fill="#FFF389"/>
<path d="M13.2727 96.3409H16.5909V99.9091H13.2727V96.3409Z" fill="#FFF389"/>
<path d="M16.5909 96.3409H19.9091V99.9091H16.5909V96.3409Z" fill="#FFF389"/>
<path d="M19.9091 92.7727H23.2273V96.3409H19.9091V92.7727Z" fill="#FFF389"/>
<path d="M23.2273 92.7727H26.5455V96.3409H23.2273V92.7727Z" fill="#FFF389"/>
<path d="M26.5455 92.7727H29.8636V96.3409H26.5455V92.7727Z" fill="#FFF389"/>
<path d="M29.8636 92.7727H33.1818V96.3409H29.8636V92.7727Z" fill="#FFF389"/>
<path d="M36.5 92.7727H39.8182V96.3409H36.5V92.7727Z" fill="#FFF389"/>
<path d="M39.8182 92.7727H43.1364V96.3409H39.8182V92.7727Z" fill="#FFF389"/>
<path d="M43.1364 92.7727H46.4545V96.3409H43.1364V92.7727Z" fill="#FFF389"/>
<path d="M46.4545 92.7727H49.7727V96.3409H46.4545V92.7727Z" fill="#FFF389"/>
<path d="M56.4091 89.2046H59.7273V92.7727H56.4091V89.2046Z" fill="#FFF389"/>
<path d="M59.7273 89.2046H63.0455V92.7727H59.7273V89.2046Z" fill="#FFF389"/>
<path d="M56.4091 71.3636H59.7273V74.9318H56.4091V71.3636Z" fill="#FFF389"/>
<path d="M46.4545 74.9318H49.7727V78.5H46.4545V74.9318Z" fill="#FFF389"/>
<path d="M39.8182 78.5H43.1364V82.0682H39.8182V78.5Z" fill="#FFF389"/>
<path d="M33.1818 82.0682H36.5V85.6364H33.1818V82.0682Z" fill="#FFF389"/>
<path d="M23.2273 85.6364H26.5455V89.2046H23.2273V85.6364Z" fill="#FFF389"/>
<path d="M16.5909 89.2046H19.9091V92.7727H16.5909V89.2046Z" fill="#FFF389"/>
<path d="M6.63636 92.7727H9.95455V96.3409H6.63636V92.7727Z" fill="#FFF389"/>
<path d="M9.95455 92.7727H13.2727V96.3409H9.95455V92.7727Z" fill="#FFF389"/>
<path d="M13.2727 89.2046H16.5909V92.7727H13.2727V89.2046Z" fill="#FFF389"/>
<path d="M19.9091 85.6364H23.2273V89.2046H19.9091V85.6364Z" fill="#FFF389"/>
<path d="M26.5455 85.6364H29.8636V89.2046H26.5455V85.6364Z" fill="#FFF389"/>
<path d="M29.8636 82.0682H33.1818V85.6364H29.8636V82.0682Z" fill="#FFF389"/>
<path d="M36.5 78.5H39.8182V82.0682H36.5V78.5Z" fill="#FFF389"/>
<path d="M43.1364 78.5H46.4545V82.0682H43.1364V78.5Z" fill="#FFF389"/>
<path d="M49.7727 74.9318H53.0909V78.5H49.7727V74.9318Z" fill="#FFF389"/>
<path d="M53.0909 71.3636H56.4091V74.9318H53.0909V71.3636Z" fill="#FFF389"/>
<path d="M29.8636 14.2727H33.1818V17.8409H29.8636V14.2727Z" fill="#FFF389"/>
<path d="M33.1818 17.8409H36.5V21.4091H33.1818V17.8409Z" fill="#FFF389"/>
<path d="M33.1818 21.4091H36.5V24.9773H33.1818V21.4091Z" fill="#FFF389"/>
<path d="M36.5 24.9773H39.8182V28.5455H36.5V24.9773Z" fill="#FFF389"/>
<path d="M36.5 28.5455H39.8182V32.1136H36.5V28.5455Z" fill="#FFF389"/>
<path d="M39.8182 32.1136H43.1364V35.6818H39.8182V32.1136Z" fill="#FFF389"/>
<path d="M39.8182 35.6818H43.1364V39.25H39.8182V35.6818Z" fill="#FFF389"/>
<path d="M43.1364 39.25H46.4545V42.8182H43.1364V39.25Z" fill="#FFF389"/>
<path d="M43.1364 42.8182H46.4545V46.3864H43.1364V42.8182Z" fill="#FFF389"/>
<path d="M46.4545 46.3864H49.7727V49.9545H46.4545V46.3864Z" fill="#FFF389"/>
<path d="M46.4545 49.9545H49.7727V53.5227H46.4545V49.9545Z" fill="#FFF389"/>
<path d="M49.7727 53.5227H53.0909V57.0909H49.7727V53.5227Z" fill="#FFF389"/>
<path d="M49.7727 57.0909H53.0909V60.6591H49.7727V57.0909Z" fill="#FFF389"/>
<path d="M53.0909 64.2273H56.4091V67.7955H53.0909V64.2273Z" fill="#FFF389"/>
<path d="M56.4091 67.7955H59.7273V71.3636H56.4091V67.7955Z" fill="#FFF389"/>
<path d="M29.8636 10.7045H33.1818V14.2727H29.8636V10.7045Z" fill="#FFF389"/>
<path d="M33.1818 14.2727H36.5V17.8409H33.1818V14.2727Z" fill="#FFF389"/>
<path d="M36.5 17.8409H39.8182V21.4091H36.5V17.8409Z" fill="#FFF389"/>
<path d="M39.8182 21.4091H43.1364V24.9773H39.8182V21.4091Z" fill="#FFF389"/>
<path d="M43.1364 24.9773H46.4545V28.5455H43.1364V24.9773Z" fill="#FFF389"/>
<path d="M46.4545 28.5455H49.7727V32.1136H46.4545V28.5455Z" fill="#FFF389"/>
<path d="M49.7727 32.1136H53.0909V35.6818H49.7727V32.1136Z" fill="#FFF389"/>
<path d="M53.0909 35.6818H56.4091V39.25H53.0909V35.6818Z" fill="#FFF389"/>
<path d="M53.0909 39.25H56.4091V42.8182H53.0909V39.25Z" fill="#FFF389"/>
<path d="M56.4091 42.8182H59.7273V46.3864H56.4091V42.8182Z" fill="#FFF389"/>
<path d="M59.7273 46.3864H63.0455V49.9545H59.7273V46.3864Z" fill="#FFF389"/>
<path d="M66.3636 53.5227H69.6818V57.0909H66.3636V53.5227Z" fill="#FFF389"/>
<path d="M69.6818 57.0909H73V60.6591H69.6818V57.0909Z" fill="#FFF389"/>
<path d="M73 60.6591H76.3182V64.2273H73V60.6591Z" fill="#FFF389"/>
<path d="M116.136 17.8409H119.455V21.4091H116.136V17.8409Z" fill="#FFF389"/>
<path d="M112.818 21.4091H116.136V24.9773H112.818V21.4091Z" fill="#FFF389"/>
<path d="M109.5 24.9773H112.818V28.5455H109.5V24.9773Z" fill="#FFF389"/>
<path d="M106.182 28.5455H109.5V32.1136H106.182V28.5455Z" fill="#FFF389"/>
<path d="M102.864 32.1136H106.182V35.6818H102.864V32.1136Z" fill="#FFF389"/>
<path d="M99.5455 35.6818H102.864V39.25H99.5455V35.6818Z" fill="#FFF389"/>
<path d="M96.2273 39.25H99.5455V42.8182H96.2273V39.25Z" fill="#FFF389"/>
<path d="M89.5909 42.8182H92.9091V46.3864H89.5909V42.8182Z" fill="#FFF389"/>
<path d="M86.2727 46.3864H89.5909V49.9545H86.2727V46.3864Z" fill="#FFF389"/>
<path d="M82.9545 49.9545H86.2727V53.5227H82.9545V49.9545Z" fill="#FFF389"/>
<path d="M76.3182 57.0909H79.6364V60.6591H76.3182V57.0909Z" fill="#FFF389"/>
<path d="M92.9091 39.25H96.2273V42.8182H92.9091V39.25Z" fill="#FFF389"/>
<path d="M82.9545 64.2273H79.6364V60.6591H76.3182V64.2273H73V60.6591H69.6818V57.0909H66.3636V60.6591V64.2273V67.7955H63.0455H59.7273V71.3636V74.9318H56.4091H53.0909V78.5H56.4091V82.0682H59.7273V85.6364H56.4091V89.2046H59.7273H63.0455H66.3636V92.7727V96.3409V99.9091H69.6818V96.3409H73V92.7727H76.3182V96.3409H79.6364H82.9545V92.7727V89.2046H86.2727V92.7727H89.5909H92.9091V89.2046H89.5909V85.6364H86.2727V82.0682H89.5909H92.9091V78.5V74.9318H89.5909V71.3636V67.7955H92.9091V64.2273H89.5909H86.2727V67.7955H82.9545V64.2273Z" fill="#FFF389"/>
<path d="M23.2273 64.2273H26.5455V67.7955H29.8636H33.1818V71.3636H36.5H39.8182V74.9318H43.1364H46.4545H49.7727H53.0909V71.3636H56.4091V67.7955H53.0909V64.2273H49.7727H46.4545H43.1364H39.8182V60.6591H36.5H33.1818H29.8636H26.5455H23.2273H19.9091V64.2273H23.2273Z" fill="#FFF389"/>
<path d="M53.0909 60.6591H56.4091H59.7273V64.2273H63.0455V60.6591V57.0909V53.5227V49.9545H59.7273V46.3864H56.4091V42.8182H53.0909V39.25V35.6818H49.7727V32.1136H46.4545V28.5455H43.1364V24.9773H39.8182V28.5455V32.1136H43.1364V35.6818V39.25H46.4545V42.8182V46.3864H49.7727V49.9545V53.5227H53.0909V57.0909V60.6591Z" fill="#FFF389"/>
<path d="M76.3182 21.4091H73V24.9773H69.6818V28.5455V32.1136V35.6818V39.25V42.8182V46.3864H66.3636V49.9545V53.5227H69.6818V57.0909H73V60.6591H76.3182V57.0909H79.6364V53.5227V49.9545V46.3864V42.8182H76.3182V39.25V35.6818V32.1136V28.5455V24.9773V21.4091Z" fill="#FFF389"/>
<path d="M82.9545 53.5227V57.0909V60.6591V64.2273H86.2727V60.6591H89.5909H92.9091H96.2273V57.0909H99.5455V53.5227V49.9545H102.864V46.3864V42.8182H106.182V39.25H109.5V35.6818V32.1136H106.182V35.6818H102.864V39.25H99.5455V42.8182H96.2273H92.9091V46.3864H89.5909V49.9545H86.2727V53.5227H82.9545Z" fill="#FFF389"/>
<path d="M119.455 60.6591H116.136H112.818H109.5H106.182V64.2273H102.864H99.5455H96.2273V67.7955H92.9091V71.3636V74.9318H96.2273V78.5H99.5455V74.9318H102.864H106.182V71.3636H109.5H112.818V67.7955H116.136H119.455V64.2273H122.773H126.091V60.6591H122.773H119.455Z" fill="#FFF389"/>
<path d="M96.2273 82.0682H92.9091V85.6364V89.2046H96.2273V92.7727H99.5455V96.3409H102.864H106.182H109.5H112.818H116.136V99.9091H119.455H122.773H126.091H129.409V96.3409H126.091H122.773V92.7727H119.455H116.136V89.2046H112.818H109.5V85.6364H106.182H102.864V82.0682H99.5455H96.2273Z" fill="#FFF389"/>
<path d="M96.2273 96.3409H92.9091H89.5909H86.2727H82.9545V99.9091V103.477H86.2727V107.045H89.5909V110.614H92.9091V114.182H96.2273V117.75H99.5455V121.318H102.864V124.886H106.182V121.318V117.75H102.864V114.182V110.614H99.5455V107.045V103.477H96.2273V99.9091V96.3409Z" fill="#FFF389"/>
<path d="M79.6364 99.9091H76.3182H73H69.6818V103.477H66.3636V107.045V110.614H69.6818V114.182V117.75V121.318V124.886V128.455V132.023V135.591V139.159H73V135.591V132.023V128.455H76.3182V124.886V121.318V117.75V114.182V110.614H79.6364V107.045V103.477V99.9091Z" fill="#FFF389"/>
<path d="M56.4091 107.045H59.7273V103.477H63.0455V99.9091V96.3409V92.7727H59.7273H56.4091H53.0909V96.3409V99.9091H49.7727V103.477H46.4545V107.045V110.614H43.1364V114.182V117.75H39.8182V121.318V124.886H43.1364V121.318H46.4545V117.75H49.7727V114.182H53.0909V110.614H56.4091V107.045Z" fill="#FFF389"/>
<path d="M56.4091 85.6364V82.0682H53.0909H49.7727H46.4545H43.1364H39.8182H36.5V85.6364H33.1818H29.8636V89.2046H26.5455H23.2273H19.9091V92.7727H23.2273H26.5455H29.8636H33.1818H36.5H39.8182H43.1364H46.4545H49.7727H53.0909V89.2046V85.6364H56.4091Z" fill="#FFF389"/>
<path d="M59.7273 64.2273H56.4091V67.7955H59.7273V64.2273Z" fill="#FFF389"/>
<path d="M112.818 128.455H109.5V132.023H112.818V128.455Z" fill="#FFF389"/>
<path d="M109.5 124.886H106.182V128.455H109.5V124.886Z" fill="#FFF389"/>
<path d="M136.045 103.477V99.9091H132.727V103.477H136.045Z" fill="#FFF389"/>
<path d="M129.409 57.0909V60.6591H132.727V57.0909H129.409Z" fill="#FFF389"/>
<path d="M112.818 32.1136V28.5455H109.5V32.1136H112.818Z" fill="#FFF389"/>
<path d="M36.5 21.4091V24.9773H39.8182V21.4091H36.5Z" fill="#FFF389"/>
<path d="M13.2727 60.6591H16.5909V57.0909H13.2727V60.6591Z" fill="#FFF389"/>
<path d="M13.2727 96.3409H16.5909H19.9091V92.7727H16.5909H13.2727V96.3409Z" fill="#FFF389"/>
<path d="M39.8182 128.455V124.886H36.5V128.455H39.8182Z" fill="#FFF389"/>
</svg>
