<svg width="25" height="25" viewBox="0 0 25 25" fill="none" xmlns="http://www.w3.org/2000/svg">
<path d="M24 12.0013L20 12L20.0013 8L24.0013 8.00126L24 12.0013Z" fill="black"/>
<path d="M12 8.00125L8 8L8.00126 4L12.0013 4.00125L12 8.00125Z" fill="black"/>
<path d="M8 12.0013L4 12L4.00125 8L8.00125 8.00126L8 12.0013Z" fill="black"/>
<path d="M4 16.0013L0 16L0.00125477 12L4.00125 12.0013L4 16.0013Z" fill="black"/>
<path d="M16 20.0013L12 20L12.0013 16L16.0013 16.0013L16 20.0013Z" fill="black"/>
<path d="M16 12.0013L12 12L12.0013 8.00003L16.0013 8.00129L16 12.0013Z" fill="black"/>
<path d="M20 8.00125L16 8L16.0013 4L20.0013 4.00125L20 8.00125Z" fill="black"/>
<path d="M20 16.0013L16 16L16.0013 12L20.0013 12.0013L20 16.0013Z" fill="black"/>
<path d="M12 16.0013L8 16L8.00126 12L12.0013 12.0013L12 16.0013Z" fill="black"/>
<path d="M12 24.0013L8 24L8.00126 20L12.0013 20.0013L12 24.0013Z" fill="black"/>
<path d="M8 20.0013L4 20L4.00125 16L8.00125 16.0013L8 20.0013Z" fill="black"/>
<path d="M16 4.00129L12 4.00003L12.0013 3.05176e-05L16.0013 0.00128528L16 4.00129Z" fill="black"/>
<path d="M20 4.00125L16 4L16.0013 0L20.0013 0.00125477L20 4.00125Z" fill="black"/>
<path d="M24 4.00125L20 4L20.0013 0L24.0013 0.00125477L24 4.00125Z" fill="black"/>
<path d="M24 8.00125L20 8L20.0013 4L24.0013 4.00125L24 8.00125Z" fill="black"/>
</svg>
