<svg width="50" height="80" viewBox="0 0 50 80" fill="none" xmlns="http://www.w3.org/2000/svg">
<path d="M5 15H10V20H5V15Z" fill="black"/>
<path d="M10 10H15V15H10V10Z" fill="black"/>
<path d="M15 5H20V10H15V5Z" fill="black"/>
<path d="M30 5H35V10H30V5Z" fill="black"/>
<path d="M20 0H25V5H20V0Z" fill="black"/>
<path d="M25 0H30V5H25V0Z" fill="black"/>
<path d="M35 10H40V15H35V10Z" fill="black"/>
<path d="M40 15H45V20H40V15Z" fill="black"/>
<path d="M0 20H50V80H0V20Z" fill="white"/>
<path d="M10 22.5H12.5H37.5H40H45H47.5V77.5H2.5V22.5H5H10Z" stroke="black" stroke-width="5"/>
</svg>
