<svg width="208" height="261" viewBox="0 0 208 261" fill="none" xmlns="http://www.w3.org/2000/svg">
<path d="M121 0H126.5V5.93182H121V0Z" fill="#FFF389"/>
<path d="M121 5.93182H126.5V11.8636H121V5.93182Z" fill="#FFF389"/>
<path d="M121 11.8636H126.5V17.7955H121V11.8636Z" fill="#FFF389"/>
<path d="M121 17.7955H126.5V23.7273H121V17.7955Z" fill="#FFF389"/>
<path d="M121 23.7273H126.5V29.6591H121V23.7273Z" fill="#FFF389"/>
<path d="M121 29.6591H126.5V35.5909H121V29.6591Z" fill="#FFF389"/>
<path d="M126.5 35.5909H132V41.5227H126.5V35.5909Z" fill="#FFF389"/>
<path d="M126.5 41.5227H132V47.4545H126.5V41.5227Z" fill="#FFF389"/>
<path d="M126.5 47.4545H132V53.3864H126.5V47.4545Z" fill="#FFF389"/>
<path d="M126.5 53.3864H132V59.3182H126.5V53.3864Z" fill="#FFF389"/>
<path d="M126.5 59.3182H132V65.25H126.5V59.3182Z" fill="#FFF389"/>
<path d="M126.5 65.25H132V71.1818H126.5V65.25Z" fill="#FFF389"/>
<path d="M132 71.1818H137.5V77.1136H132V71.1818Z" fill="#FFF389"/>
<path d="M132 77.1136H137.5V83.0455H132V77.1136Z" fill="#FFF389"/>
<path d="M132 83.0455H137.5V88.9773H132V83.0455Z" fill="#FFF389"/>
<path d="M132 88.9773H137.5V94.9091H132V88.9773Z" fill="#FFF389"/>
<path d="M132 94.9091H137.5V100.841H132V94.9091Z" fill="#FFF389"/>
<path d="M132 100.841H137.5V106.773H132V100.841Z" fill="#FFF389"/>
<path d="M137.5 106.773H143V112.705H137.5V106.773Z" fill="#FFF389"/>
<path d="M231 88.9773H236.5V94.9091H231V88.9773Z" fill="#FFF389"/>
<path d="M192.5 94.9091H198V100.841H192.5V94.9091Z" fill="#FFF389"/>
<path d="M159.5 100.841H165V106.773H159.5V100.841Z" fill="#FFF389"/>
<path d="M143 100.841H148.5V106.773H143V100.841Z" fill="#FFF389"/>
<path d="M148.5 100.841H154V106.773H148.5V100.841Z" fill="#FFF389"/>
<path d="M154 100.841H159.5V106.773H154V100.841Z" fill="#FFF389"/>
<path d="M165 100.841H170.5V106.773H165V100.841Z" fill="#FFF389"/>
<path d="M170.5 100.841H176V106.773H170.5V100.841Z" fill="#FFF389"/>
<path d="M176 94.9091H181.5V100.841H176V94.9091Z" fill="#FFF389"/>
<path d="M181.5 94.9091H187V100.841H181.5V94.9091Z" fill="#FFF389"/>
<path d="M187 94.9091H192.5V100.841H187V94.9091Z" fill="#FFF389"/>
<path d="M198 94.9091H203.5V100.841H198V94.9091Z" fill="#FFF389"/>
<path d="M203.5 94.9091H209V100.841H203.5V94.9091Z" fill="#FFF389"/>
<path d="M209 94.9091H214.5V100.841H209V94.9091Z" fill="#FFF389"/>
<path d="M214.5 88.9773H220V94.9091H214.5V88.9773Z" fill="#FFF389"/>
<path d="M220 88.9773H225.5V94.9091H220V88.9773Z" fill="#FFF389"/>
<path d="M225.5 88.9773H231V94.9091H225.5V88.9773Z" fill="#FFF389"/>
<path d="M236.5 88.9773H242V94.9091H236.5V88.9773Z" fill="#FFF389"/>
<path d="M225.5 94.9091H231V100.841H225.5V94.9091Z" fill="#FFF389"/>
<path d="M214.5 100.841H220V106.773H214.5V100.841Z" fill="#FFF389"/>
<path d="M203.5 106.773H209V112.705H203.5V106.773Z" fill="#FFF389"/>
<path d="M192.5 112.705H198V118.636H192.5V112.705Z" fill="#FFF389"/>
<path d="M176 118.636H181.5V124.568H176V118.636Z" fill="#FFF389"/>
<path d="M165 124.568H170.5V130.5H165V124.568Z" fill="#FFF389"/>
<path d="M154 130.5H159.5V136.432H154V130.5Z" fill="#FFF389"/>
<path d="M148.5 136.432H154V142.364H148.5V136.432Z" fill="#FFF389"/>
<path d="M159.5 130.5H165V136.432H159.5V130.5Z" fill="#FFF389"/>
<path d="M170.5 124.568H176V130.5H170.5V124.568Z" fill="#FFF389"/>
<path d="M181.5 118.636H187V124.568H181.5V118.636Z" fill="#FFF389"/>
<path d="M187 112.705H192.5V118.636H187V112.705Z" fill="#FFF389"/>
<path d="M198 106.773H203.5V112.705H198V106.773Z" fill="#FFF389"/>
<path d="M209 100.841H214.5V106.773H209V100.841Z" fill="#FFF389"/>
<path d="M220 94.9091H225.5V100.841H220V94.9091Z" fill="#FFF389"/>
<path d="M143 136.432H148.5V142.364H143V136.432Z" fill="#FFF389"/>
<path d="M148.5 142.364H154V148.295H148.5V142.364Z" fill="#FFF389"/>
<path d="M154 148.295H159.5V154.227H154V148.295Z" fill="#FFF389"/>
<path d="M154 154.227H159.5V160.159H154V154.227Z" fill="#FFF389"/>
<path d="M159.5 160.159H165V166.091H159.5V160.159Z" fill="#FFF389"/>
<path d="M159.5 166.091H165V172.023H159.5V166.091Z" fill="#FFF389"/>
<path d="M165 172.023H170.5V177.955H165V172.023Z" fill="#FFF389"/>
<path d="M165 177.955H170.5V183.886H165V177.955Z" fill="#FFF389"/>
<path d="M170.5 183.886H176V189.818H170.5V183.886Z" fill="#FFF389"/>
<path d="M170.5 189.818H176V195.75H170.5V189.818Z" fill="#FFF389"/>
<path d="M176 195.75H181.5V201.682H176V195.75Z" fill="#FFF389"/>
<path d="M176 201.682H181.5V207.614H176V201.682Z" fill="#FFF389"/>
<path d="M181.5 207.614H187V213.545H181.5V207.614Z" fill="#FFF389"/>
<path d="M187 213.545H192.5V219.477H187V213.545Z" fill="#FFF389"/>
<path d="M187 219.477H192.5V225.409H187V219.477Z" fill="#FFF389"/>
<path d="M192.5 225.409H198V231.341H192.5V225.409Z" fill="#FFF389"/>
<path d="M192.5 231.341H198V237.273H192.5V231.341Z" fill="#FFF389"/>
<path d="M126.5 160.159H132V166.091H126.5V160.159Z" fill="#FFF389"/>
<path d="M132 166.091H137.5V172.023H132V166.091Z" fill="#FFF389"/>
<path d="M137.5 172.023H143V177.955H137.5V172.023Z" fill="#FFF389"/>
<path d="M143 177.955H148.5V183.886H143V177.955Z" fill="#FFF389"/>
<path d="M148.5 183.886H154V189.818H148.5V183.886Z" fill="#FFF389"/>
<path d="M154 189.818H159.5V195.75H154V189.818Z" fill="#FFF389"/>
<path d="M159.5 195.75H165V201.682H159.5V195.75Z" fill="#FFF389"/>
<path d="M165 201.682H170.5V207.614H165V201.682Z" fill="#FFF389"/>
<path d="M170.5 207.614H176V213.545H170.5V207.614Z" fill="#FFF389"/>
<path d="M176 213.545H181.5V219.477H176V213.545Z" fill="#FFF389"/>
<path d="M181.5 219.477H187V225.409H181.5V219.477Z" fill="#FFF389"/>
<path d="M187 225.409H192.5V231.341H187V225.409Z" fill="#FFF389"/>
<path d="M121 160.159H126.5V166.091H121V160.159Z" fill="#FFF389"/>
<path d="M121 154.227H126.5V160.159H121V154.227Z" fill="#FFF389"/>
<path d="M115.5 160.159H121V166.091H115.5V160.159Z" fill="#FFF389"/>
<path d="M110 166.091H115.5V172.023H110V166.091Z" fill="#FFF389"/>
<path d="M104.5 172.023H110V177.955H104.5V172.023Z" fill="#FFF389"/>
<path d="M93.5 177.955H99V183.886H93.5V177.955Z" fill="#FFF389"/>
<path d="M88 183.886H93.5V189.818H88V183.886Z" fill="#FFF389"/>
<path d="M82.5 189.818H88V195.75H82.5V189.818Z" fill="#FFF389"/>
<path d="M77 195.75H82.5V201.682H77V195.75Z" fill="#FFF389"/>
<path d="M71.5 201.682H77V207.614H71.5V201.682Z" fill="#FFF389"/>
<path d="M66 207.614H71.5V213.545H66V207.614Z" fill="#FFF389"/>
<path d="M60.5 213.545H66V219.477H60.5V213.545Z" fill="#FFF389"/>
<path d="M55 219.477H60.5V225.409H55V219.477Z" fill="#FFF389"/>
<path d="M49.5 225.409H55V231.341H49.5V225.409Z" fill="#FFF389"/>
<path d="M99 172.023H104.5V177.955H99V172.023Z" fill="#FFF389"/>
<path d="M44 231.341H49.5V237.273H44V231.341Z" fill="#FFF389"/>
<path d="M93.5 136.432H99V142.364H93.5V136.432Z" fill="#FFF389"/>
<path d="M88 142.364H93.5V148.295H88V142.364Z" fill="#FFF389"/>
<path d="M88 148.295H93.5V154.227H88V148.295Z" fill="#FFF389"/>
<path d="M82.5 154.227H88V160.159H82.5V154.227Z" fill="#FFF389"/>
<path d="M82.5 160.159H88V166.091H82.5V160.159Z" fill="#FFF389"/>
<path d="M77 166.091H82.5V172.023H77V166.091Z" fill="#FFF389"/>
<path d="M71.5 172.023H77V177.955H71.5V172.023Z" fill="#FFF389"/>
<path d="M71.5 177.955H77V183.886H71.5V177.955Z" fill="#FFF389"/>
<path d="M66 183.886H71.5V189.818H66V183.886Z" fill="#FFF389"/>
<path d="M66 189.818H71.5V195.75H66V189.818Z" fill="#FFF389"/>
<path d="M60.5 195.75H66V201.682H60.5V195.75Z" fill="#FFF389"/>
<path d="M60.5 201.682H66V207.614H60.5V201.682Z" fill="#FFF389"/>
<path d="M55 207.614H60.5V213.545H55V207.614Z" fill="#FFF389"/>
<path d="M55 213.545H60.5V219.477H55V213.545Z" fill="#FFF389"/>
<path d="M49.5 219.477H55V225.409H49.5V219.477Z" fill="#FFF389"/>
<path d="M0 88.9773H5.5V94.9091H0V88.9773Z" fill="#FFF389"/>
<path d="M11 94.9091H16.5V100.841H11V94.9091Z" fill="#FFF389"/>
<path d="M22 100.841H27.5V106.773H22V100.841Z" fill="#FFF389"/>
<path d="M38.5 106.773H44V112.705H38.5V106.773Z" fill="#FFF389"/>
<path d="M49.5 112.705H55V118.636H49.5V112.705Z" fill="#FFF389"/>
<path d="M60.5 118.636H66V124.568H60.5V118.636Z" fill="#FFF389"/>
<path d="M71.5 124.568H77V130.5H71.5V124.568Z" fill="#FFF389"/>
<path d="M82.5 130.5H88V136.432H82.5V130.5Z" fill="#FFF389"/>
<path d="M5.5 88.9773H11V94.9091H5.5V88.9773Z" fill="#FFF389"/>
<path d="M16.5 94.9091H22V100.841H16.5V94.9091Z" fill="#FFF389"/>
<path d="M27.5 100.841H33V106.773H27.5V100.841Z" fill="#FFF389"/>
<path d="M33 106.773H38.5V112.705H33V106.773Z" fill="#FFF389"/>
<path d="M44 112.705H49.5V118.636H44V112.705Z" fill="#FFF389"/>
<path d="M55 118.636H60.5V124.568H55V118.636Z" fill="#FFF389"/>
<path d="M66 124.568H71.5V130.5H66V124.568Z" fill="#FFF389"/>
<path d="M77 130.5H82.5V136.432H77V130.5Z" fill="#FFF389"/>
<path d="M88 130.5H93.5V136.432H88V130.5Z" fill="#FFF389"/>
<path d="M44 94.9091H49.5V100.841H44V94.9091Z" fill="#FFF389"/>
<path d="M82.5 100.841H88V106.773H82.5V100.841Z" fill="#FFF389"/>
<path d="M11 88.9773H16.5V94.9091H11V88.9773Z" fill="#FFF389"/>
<path d="M16.5 88.9773H22V94.9091H16.5V88.9773Z" fill="#FFF389"/>
<path d="M22 88.9773H27.5V94.9091H22V88.9773Z" fill="#FFF389"/>
<path d="M27.5 94.9091H33V100.841H27.5V94.9091Z" fill="#FFF389"/>
<path d="M33 94.9091H38.5V100.841H33V94.9091Z" fill="#FFF389"/>
<path d="M38.5 94.9091H44V100.841H38.5V94.9091Z" fill="#FFF389"/>
<path d="M49.5 94.9091H55V100.841H49.5V94.9091Z" fill="#FFF389"/>
<path d="M55 94.9091H60.5V100.841H55V94.9091Z" fill="#FFF389"/>
<path d="M60.5 94.9091H66V100.841H60.5V94.9091Z" fill="#FFF389"/>
<path d="M66 100.841H71.5V106.773H66V100.841Z" fill="#FFF389"/>
<path d="M71.5 100.841H77V106.773H71.5V100.841Z" fill="#FFF389"/>
<path d="M77 100.841H82.5V106.773H77V100.841Z" fill="#FFF389"/>
<path d="M88 100.841H93.5V106.773H88V100.841Z" fill="#FFF389"/>
<path d="M93.5 100.841H99V106.773H93.5V100.841Z" fill="#FFF389"/>
<path d="M99 106.773H104.5V112.705H99V106.773Z" fill="#FFF389"/>
<path d="M104.5 106.773H110V112.705H104.5V106.773Z" fill="#FFF389"/>
<path d="M115.5 5.93182H121V11.8636H115.5V5.93182Z" fill="#FFF389"/>
<path d="M115.5 11.8636H121V17.7955H115.5V11.8636Z" fill="#FFF389"/>
<path d="M115.5 17.7955H121V23.7273H115.5V17.7955Z" fill="#FFF389"/>
<path d="M115.5 23.7273H121V29.6591H115.5V23.7273Z" fill="#FFF389"/>
<path d="M115.5 29.6591H121V35.5909H115.5V29.6591Z" fill="#FFF389"/>
<path d="M115.5 35.5909H121V41.5227H115.5V35.5909Z" fill="#FFF389"/>
<path d="M110 41.5227H115.5V47.4545H110V41.5227Z" fill="#FFF389"/>
<path d="M110 47.4545H115.5V53.3864H110V47.4545Z" fill="#FFF389"/>
<path d="M110 53.3864H115.5V59.3182H110V53.3864Z" fill="#FFF389"/>
<path d="M110 59.3182H115.5V65.25H110V59.3182Z" fill="#FFF389"/>
<path d="M110 65.25H115.5V71.1818H110V65.25Z" fill="#FFF389"/>
<path d="M110 71.1818H115.5V77.1136H110V71.1818Z" fill="#FFF389"/>
<path d="M104.5 77.1136H110V83.0455H104.5V77.1136Z" fill="#FFF389"/>
<path d="M104.5 83.0455H110V88.9773H104.5V83.0455Z" fill="#FFF389"/>
<path d="M104.5 88.9773H110V94.9091H104.5V88.9773Z" fill="#FFF389"/>
<path d="M104.5 94.9091H110V100.841H104.5V94.9091Z" fill="#FFF389"/>
<path d="M104.5 100.841H110V106.773H104.5V100.841Z" fill="#FFF389"/>
<path d="M198 29.6591H203.5V35.5909H198V29.6591Z" fill="#FFF389"/>
<path d="M192.5 35.5909H198V41.5227H192.5V35.5909Z" fill="#FFF389"/>
<path d="M187 41.5227H192.5V47.4545H187V41.5227Z" fill="#FFF389"/>
<path d="M187 47.4545H192.5V53.3864H187V47.4545Z" fill="#FFF389"/>
<path d="M181.5 53.3864H187V59.3182H181.5V53.3864Z" fill="#FFF389"/>
<path d="M181.5 59.3182H187V65.25H181.5V59.3182Z" fill="#FFF389"/>
<path d="M176 65.25H181.5V71.1818H176V65.25Z" fill="#FFF389"/>
<path d="M170.5 71.1818H176V77.1136H170.5V71.1818Z" fill="#FFF389"/>
<path d="M170.5 77.1136H176V83.0455H170.5V77.1136Z" fill="#FFF389"/>
<path d="M165 83.0455H170.5V88.9773H165V83.0455Z" fill="#FFF389"/>
<path d="M165 88.9773H170.5V94.9091H165V88.9773Z" fill="#FFF389"/>
<path d="M159.5 94.9091H165V100.841H159.5V94.9091Z" fill="#FFF389"/>
<path d="M154 106.773H159.5V112.705H154V106.773Z" fill="#FFF389"/>
<path d="M148.5 112.705H154V118.636H148.5V112.705Z" fill="#FFF389"/>
<path d="M148.5 118.636H154V124.568H148.5V118.636Z" fill="#FFF389"/>
<path d="M154 124.568H159.5V130.5H154V124.568Z" fill="#FFF389"/>
<path d="M165 130.5H170.5V136.432H165V130.5Z" fill="#FFF389"/>
<path d="M176 136.432H181.5V142.364H176V136.432Z" fill="#FFF389"/>
<path d="M187 142.364H192.5V148.295H187V142.364Z" fill="#FFF389"/>
<path d="M192.5 148.295H198V154.227H192.5V148.295Z" fill="#FFF389"/>
<path d="M203.5 154.227H209V160.159H203.5V154.227Z" fill="#FFF389"/>
<path d="M214.5 160.159H220V166.091H214.5V160.159Z" fill="#FFF389"/>
<path d="M225.5 166.091H231V172.023H225.5V166.091Z" fill="#FFF389"/>
<path d="M236.5 172.023H242V177.955H236.5V172.023Z" fill="#FFF389"/>
<path d="M170.5 136.432H176V142.364H170.5V136.432Z" fill="#FFF389"/>
<path d="M181.5 142.364H187V148.295H181.5V142.364Z" fill="#FFF389"/>
<path d="M198 148.295H203.5V154.227H198V148.295Z" fill="#FFF389"/>
<path d="M209 154.227H214.5V160.159H209V154.227Z" fill="#FFF389"/>
<path d="M220 160.159H225.5V166.091H220V160.159Z" fill="#FFF389"/>
<path d="M231 172.023H236.5V177.955H231V172.023Z" fill="#FFF389"/>
<path d="M148.5 154.227H154V160.159H148.5V154.227Z" fill="#FFF389"/>
<path d="M176 160.159H181.5V166.091H176V160.159Z" fill="#FFF389"/>
<path d="M203.5 166.091H209V172.023H203.5V166.091Z" fill="#FFF389"/>
<path d="M137.5 154.227H143V160.159H137.5V154.227Z" fill="#FFF389"/>
<path d="M143 154.227H148.5V160.159H143V154.227Z" fill="#FFF389"/>
<path d="M159.5 154.227H165V160.159H159.5V154.227Z" fill="#FFF389"/>
<path d="M165 160.159H170.5V166.091H165V160.159Z" fill="#FFF389"/>
<path d="M170.5 160.159H176V166.091H170.5V160.159Z" fill="#FFF389"/>
<path d="M181.5 160.159H187V166.091H181.5V160.159Z" fill="#FFF389"/>
<path d="M187 160.159H192.5V166.091H187V160.159Z" fill="#FFF389"/>
<path d="M192.5 166.091H198V172.023H192.5V166.091Z" fill="#FFF389"/>
<path d="M198 166.091H203.5V172.023H198V166.091Z" fill="#FFF389"/>
<path d="M209 166.091H214.5V172.023H209V166.091Z" fill="#FFF389"/>
<path d="M214.5 166.091H220V172.023H214.5V166.091Z" fill="#FFF389"/>
<path d="M220 172.023H225.5V177.955H220V172.023Z" fill="#FFF389"/>
<path d="M225.5 172.023H231V177.955H225.5V172.023Z" fill="#FFF389"/>
<path d="M137.5 148.295H143V154.227H137.5V148.295Z" fill="#FFF389"/>
<path d="M132 160.159H137.5V166.091H132V160.159Z" fill="#FFF389"/>
<path d="M132 172.023H137.5V177.955H132V172.023Z" fill="#FFF389"/>
<path d="M132 177.955H137.5V183.886H132V177.955Z" fill="#FFF389"/>
<path d="M126.5 183.886H132V189.818H126.5V183.886Z" fill="#FFF389"/>
<path d="M126.5 189.818H132V195.75H126.5V189.818Z" fill="#FFF389"/>
<path d="M126.5 195.75H132V201.682H126.5V195.75Z" fill="#FFF389"/>
<path d="M126.5 201.682H132V207.614H126.5V201.682Z" fill="#FFF389"/>
<path d="M126.5 207.614H132V213.545H126.5V207.614Z" fill="#FFF389"/>
<path d="M121 213.545H126.5V219.477H121V213.545Z" fill="#FFF389"/>
<path d="M121 219.477H126.5V225.409H121V219.477Z" fill="#FFF389"/>
<path d="M121 225.409H126.5V231.341H121V225.409Z" fill="#FFF389"/>
<path d="M121 231.341H126.5V237.273H121V231.341Z" fill="#FFF389"/>
<path d="M121 237.273H126.5V243.205H121V237.273Z" fill="#FFF389"/>
<path d="M115.5 243.205H121V249.136H115.5V243.205Z" fill="#FFF389"/>
<path d="M115.5 249.136H121V255.068H115.5V249.136Z" fill="#FFF389"/>
<path d="M115.5 255.068H121V261H115.5V255.068Z" fill="#FFF389"/>
<path d="M104.5 154.227H110V160.159H104.5V154.227Z" fill="#FFF389"/>
<path d="M104.5 160.159H110V166.091H104.5V160.159Z" fill="#FFF389"/>
<path d="M104.5 166.091H110V172.023H104.5V166.091Z" fill="#FFF389"/>
<path d="M104.5 177.955H110V183.886H104.5V177.955Z" fill="#FFF389"/>
<path d="M110 183.886H115.5V189.818H110V183.886Z" fill="#FFF389"/>
<path d="M110 189.818H115.5V195.75H110V189.818Z" fill="#FFF389"/>
<path d="M110 195.75H115.5V201.682H110V195.75Z" fill="#FFF389"/>
<path d="M110 201.682H115.5V207.614H110V201.682Z" fill="#FFF389"/>
<path d="M110 207.614H115.5V213.545H110V207.614Z" fill="#FFF389"/>
<path d="M110 213.545H115.5V219.477H110V213.545Z" fill="#FFF389"/>
<path d="M110 219.477H115.5V225.409H110V219.477Z" fill="#FFF389"/>
<path d="M110 225.409H115.5V231.341H110V225.409Z" fill="#FFF389"/>
<path d="M115.5 231.341H121V237.273H115.5V231.341Z" fill="#FFF389"/>
<path d="M115.5 237.273H121V243.205H115.5V237.273Z" fill="#FFF389"/>
<path d="M104.5 148.295H110V154.227H104.5V148.295Z" fill="#FFF389"/>
<path d="M55 154.227H60.5V160.159H55V154.227Z" fill="#FFF389"/>
<path d="M0 160.159H5.5V166.091H0V160.159Z" fill="#FFF389"/>
<path d="M5.5 160.159H11V166.091H5.5V160.159Z" fill="#FFF389"/>
<path d="M11 160.159H16.5V166.091H11V160.159Z" fill="#FFF389"/>
<path d="M16.5 160.159H22V166.091H16.5V160.159Z" fill="#FFF389"/>
<path d="M22 160.159H27.5V166.091H22V160.159Z" fill="#FFF389"/>
<path d="M27.5 160.159H33V166.091H27.5V160.159Z" fill="#FFF389"/>
<path d="M33 154.227H38.5V160.159H33V154.227Z" fill="#FFF389"/>
<path d="M38.5 154.227H44V160.159H38.5V154.227Z" fill="#FFF389"/>
<path d="M44 154.227H49.5V160.159H44V154.227Z" fill="#FFF389"/>
<path d="M49.5 154.227H55V160.159H49.5V154.227Z" fill="#FFF389"/>
<path d="M60.5 154.227H66V160.159H60.5V154.227Z" fill="#FFF389"/>
<path d="M66 154.227H71.5V160.159H66V154.227Z" fill="#FFF389"/>
<path d="M71.5 154.227H77V160.159H71.5V154.227Z" fill="#FFF389"/>
<path d="M77 154.227H82.5V160.159H77V154.227Z" fill="#FFF389"/>
<path d="M93.5 148.295H99V154.227H93.5V148.295Z" fill="#FFF389"/>
<path d="M99 148.295H104.5V154.227H99V148.295Z" fill="#FFF389"/>
<path d="M93.5 118.636H99V124.568H93.5V118.636Z" fill="#FFF389"/>
<path d="M77 124.568H82.5V130.5H77V124.568Z" fill="#FFF389"/>
<path d="M66 130.5H71.5V136.432H66V130.5Z" fill="#FFF389"/>
<path d="M55 136.432H60.5V142.364H55V136.432Z" fill="#FFF389"/>
<path d="M38.5 142.364H44V148.295H38.5V142.364Z" fill="#FFF389"/>
<path d="M27.5 148.295H33V154.227H27.5V148.295Z" fill="#FFF389"/>
<path d="M11 154.227H16.5V160.159H11V154.227Z" fill="#FFF389"/>
<path d="M16.5 154.227H22V160.159H16.5V154.227Z" fill="#FFF389"/>
<path d="M22 148.295H27.5V154.227H22V148.295Z" fill="#FFF389"/>
<path d="M33 142.364H38.5V148.295H33V142.364Z" fill="#FFF389"/>
<path d="M44 142.364H49.5V148.295H44V142.364Z" fill="#FFF389"/>
<path d="M49.5 136.432H55V142.364H49.5V136.432Z" fill="#FFF389"/>
<path d="M60.5 130.5H66V136.432H60.5V130.5Z" fill="#FFF389"/>
<path d="M71.5 130.5H77V136.432H71.5V130.5Z" fill="#FFF389"/>
<path d="M82.5 124.568H88V130.5H82.5V124.568Z" fill="#FFF389"/>
<path d="M88 118.636H93.5V124.568H88V118.636Z" fill="#FFF389"/>
<path d="M49.5 23.7273H55V29.6591H49.5V23.7273Z" fill="#FFF389"/>
<path d="M55 29.6591H60.5V35.5909H55V29.6591Z" fill="#FFF389"/>
<path d="M55 35.5909H60.5V41.5227H55V35.5909Z" fill="#FFF389"/>
<path d="M60.5 41.5227H66V47.4545H60.5V41.5227Z" fill="#FFF389"/>
<path d="M60.5 47.4545H66V53.3864H60.5V47.4545Z" fill="#FFF389"/>
<path d="M66 53.3864H71.5V59.3182H66V53.3864Z" fill="#FFF389"/>
<path d="M66 59.3182H71.5V65.25H66V59.3182Z" fill="#FFF389"/>
<path d="M71.5 65.25H77V71.1818H71.5V65.25Z" fill="#FFF389"/>
<path d="M71.5 71.1818H77V77.1136H71.5V71.1818Z" fill="#FFF389"/>
<path d="M77 77.1136H82.5V83.0455H77V77.1136Z" fill="#FFF389"/>
<path d="M77 83.0455H82.5V88.9773H77V83.0455Z" fill="#FFF389"/>
<path d="M82.5 88.9773H88V94.9091H82.5V88.9773Z" fill="#FFF389"/>
<path d="M82.5 94.9091H88V100.841H82.5V94.9091Z" fill="#FFF389"/>
<path d="M88 106.773H93.5V112.705H88V106.773Z" fill="#FFF389"/>
<path d="M93.5 112.705H99V118.636H93.5V112.705Z" fill="#FFF389"/>
<path d="M49.5 17.7955H55V23.7273H49.5V17.7955Z" fill="#FFF389"/>
<path d="M55 23.7273H60.5V29.6591H55V23.7273Z" fill="#FFF389"/>
<path d="M60.5 29.6591H66V35.5909H60.5V29.6591Z" fill="#FFF389"/>
<path d="M66 35.5909H71.5V41.5227H66V35.5909Z" fill="#FFF389"/>
<path d="M71.5 41.5227H77V47.4545H71.5V41.5227Z" fill="#FFF389"/>
<path d="M77 47.4545H82.5V53.3864H77V47.4545Z" fill="#FFF389"/>
<path d="M82.5 53.3864H88V59.3182H82.5V53.3864Z" fill="#FFF389"/>
<path d="M88 59.3182H93.5V65.25H88V59.3182Z" fill="#FFF389"/>
<path d="M88 65.25H93.5V71.1818H88V65.25Z" fill="#FFF389"/>
<path d="M93.5 71.1818H99V77.1136H93.5V71.1818Z" fill="#FFF389"/>
<path d="M99 77.1136H104.5V83.0455H99V77.1136Z" fill="#FFF389"/>
<path d="M110 88.9773H115.5V94.9091H110V88.9773Z" fill="#FFF389"/>
<path d="M115.5 94.9091H121V100.841H115.5V94.9091Z" fill="#FFF389"/>
<path d="M121 100.841H126.5V106.773H121V100.841Z" fill="#FFF389"/>
<path d="M192.5 29.6591H198V35.5909H192.5V29.6591Z" fill="#FFF389"/>
<path d="M187 35.5909H192.5V41.5227H187V35.5909Z" fill="#FFF389"/>
<path d="M181.5 41.5227H187V47.4545H181.5V41.5227Z" fill="#FFF389"/>
<path d="M176 47.4545H181.5V53.3864H176V47.4545Z" fill="#FFF389"/>
<path d="M170.5 53.3864H176V59.3182H170.5V53.3864Z" fill="#FFF389"/>
<path d="M165 59.3182H170.5V65.25H165V59.3182Z" fill="#FFF389"/>
<path d="M159.5 65.25H165V71.1818H159.5V65.25Z" fill="#FFF389"/>
<path d="M148.5 71.1818H154V77.1136H148.5V71.1818Z" fill="#FFF389"/>
<path d="M143 77.1136H148.5V83.0455H143V77.1136Z" fill="#FFF389"/>
<path d="M137.5 83.0455H143V88.9773H137.5V83.0455Z" fill="#FFF389"/>
<path d="M126.5 94.9091H132V100.841H126.5V94.9091Z" fill="#FFF389"/>
<path d="M154 65.25H159.5V71.1818H154V65.25Z" fill="#FFF389"/>
<path d="M137.5 106.773H132V100.841H126.5V106.773H121V100.841H115.5V94.9091H110V100.841V106.773V112.705H104.5H99V118.636V124.568H93.5H88V130.5H93.5V136.432H99V142.364H93.5V148.295H99H104.5H110V154.227V160.159V166.091H115.5V160.159H121V154.227H126.5V160.159H132H137.5V154.227V148.295H143V154.227H148.5H154V148.295H148.5V142.364H143V136.432H148.5H154V130.5V124.568H148.5V118.636V112.705H154V106.773H148.5H143V112.705H137.5V106.773Z" fill="#FFF389"/>
<path d="M38.5 106.773H44V112.705H49.5H55V118.636H60.5H66V124.568H71.5H77H82.5H88V118.636H93.5V112.705H88V106.773H82.5H77H71.5H66V100.841H60.5H55H49.5H44H38.5H33V106.773H38.5Z" fill="#FFF389"/>
<path d="M88 100.841H93.5H99V106.773H104.5V100.841V94.9091V88.9773V83.0455H99V77.1136H93.5V71.1818H88V65.25V59.3182H82.5V53.3864H77V47.4545H71.5V41.5227H66V47.4545V53.3864H71.5V59.3182V65.25H77V71.1818V77.1136H82.5V83.0455V88.9773H88V94.9091V100.841Z" fill="#FFF389"/>
<path d="M126.5 35.5909H121V41.5227H115.5V47.4545V53.3864V59.3182V65.25V71.1818V77.1136H110V83.0455V88.9773H115.5V94.9091H121V100.841H126.5V94.9091H132V88.9773V83.0455V77.1136V71.1818H126.5V65.25V59.3182V53.3864V47.4545V41.5227V35.5909Z" fill="#FFF389"/>
<path d="M137.5 88.9773V94.9091V100.841V106.773H143V100.841H148.5H154H159.5V94.9091H165V88.9773V83.0455H170.5V77.1136V71.1818H176V65.25H181.5V59.3182V53.3864H176V59.3182H170.5V65.25H165V71.1818H159.5H154V77.1136H148.5V83.0455H143V88.9773H137.5Z" fill="#FFF389"/>
<path d="M198 100.841H192.5H187H181.5H176V106.773H170.5H165H159.5V112.705H154V118.636V124.568H159.5V130.5H165V124.568H170.5H176V118.636H181.5H187V112.705H192.5H198V106.773H203.5H209V100.841H203.5H198Z" fill="#FFF389"/>
<path d="M159.5 136.432H154V142.364V148.295H159.5V154.227H165V160.159H170.5H176H181.5H187H192.5V166.091H198H203.5H209H214.5V160.159H209H203.5V154.227H198H192.5V148.295H187H181.5V142.364H176H170.5V136.432H165H159.5Z" fill="#FFF389"/>
<path d="M159.5 160.159H154H148.5H143H137.5V166.091V172.023H143V177.955H148.5V183.886H154V189.818H159.5V195.75H165V201.682H170.5V207.614H176V201.682V195.75H170.5V189.818V183.886H165V177.955V172.023H159.5V166.091V160.159Z" fill="#FFF389"/>
<path d="M132 166.091H126.5H121H115.5V172.023H110V177.955V183.886H115.5V189.818V195.75V201.682V207.614V213.545V219.477V225.409V231.341H121V225.409V219.477V213.545H126.5V207.614V201.682V195.75V189.818V183.886H132V177.955V172.023V166.091Z" fill="#FFF389"/>
<path d="M93.5 177.955H99V172.023H104.5V166.091V160.159V154.227H99H93.5H88V160.159V166.091H82.5V172.023H77V177.955V183.886H71.5V189.818V195.75H66V201.682V207.614H71.5V201.682H77V195.75H82.5V189.818H88V183.886H93.5V177.955Z" fill="#FFF389"/>
<path d="M93.5 142.364V136.432H88H82.5H77H71.5H66H60.5V142.364H55H49.5V148.295H44H38.5H33V154.227H38.5H44H49.5H55H60.5H66H71.5H77H82.5H88V148.295V142.364H93.5Z" fill="#FFF389"/>
<path d="M99 106.773H93.5V112.705H99V106.773Z" fill="#FFF389"/>
<path d="M187 213.545H181.5V219.477H187V213.545Z" fill="#FFF389"/>
<path d="M181.5 207.614H176V213.545H181.5V207.614Z" fill="#FFF389"/>
<path d="M225.5 172.023V166.091H220V172.023H225.5Z" fill="#FFF389"/>
<path d="M214.5 94.9091V100.841H220V94.9091H214.5Z" fill="#FFF389"/>
<path d="M187 53.3864V47.4545H181.5V53.3864H187Z" fill="#FFF389"/>
<path d="M60.5 35.5909V41.5227H66V35.5909H60.5Z" fill="#FFF389"/>
<path d="M22 100.841H27.5V94.9091H22V100.841Z" fill="#FFF389"/>
<path d="M22 160.159H27.5H33V154.227H27.5H22V160.159Z" fill="#FFF389"/>
<path d="M66 213.545V207.614H60.5V213.545H66Z" fill="#FFF389"/>
</svg>
